<?xml version="1.0" encoding="UTF-8"?>
<!DOCTYPE svg  PUBLIC '-//W3C//DTD SVG 1.1//EN'  'http://www.w3.org/Graphics/SVG/1.1/DTD/svg11.dtd'>
<svg version="1.1" xmlns="http://www.w3.org/2000/svg">
<defs>
<font id="BasierCircle-Medium" horiz-adv-x="546">
<font-face font-family="Basier Circle" font-weight="500" ascent="800" bbox="-32 -245 947 977" cap-height="700" descent="-200" panose-1="0 0 6 0 0 0 0 0 0 0" underline-position="-250" underline-thickness="50" unicode-range="U+0020-00FE" units-per-em="1000" x-height="516"/>
<missing-glyph/>
<glyph glyph-name="space" horiz-adv-x="291" unicode=" "/>
<glyph d="M170 222h-77l-21 382v96h124v-96zM133 -9q-62 0 -71 57q-1 8 -1 16q0 63 56 72q8 1 16 1q55 0 69 -48q3 -12 3 -25q0 -55 -47 -69q-12 -4 -25 -4z" glyph-name="exclam" horiz-adv-x="266" unicode="!"/>
<glyph d="M156 431h-76l-20 152v117h116v-117zM344 431h-75l-20 152v117h116v-117z" glyph-name="quotedbl" horiz-adv-x="425" unicode='"'/>
<glyph d="M644 516v-100h-126l-24 -137h100v-100h-117l-30 -179h-102l30 179h-122l-30 -179h-102l30 179h-101v100h118l24 137h-92v100h109l31 184h102l-31 -184h122l31 184h102l-31 -184h109zM270 279h122l24 137h-122z" glyph-name="numbersign" horiz-adv-x="694" unicode="#"/>
<glyph d="M590 198q0 -131 -123 -181q-48 -19 -109 -24v-83h-81v82q-171 15 -222 144q-15 40 -18 87h119q7 -92 95 -118q13 -4 26 -6v212l-18 4q-165 36 -193 144q-6 25 -6 54q0 107 96 160q51 28 121 34v83h81v-83q98 -11 159 -70q59 -59 61 -145h-119q-6 90 -101 107v-189l20 -4 q211 -45 212 -208zM181 513q2 -63 96 -86v174q-95 -13 -96 -88zM358 294v-196q110 15 111 98q0 63 -76 89q-15 4 -32 8z" glyph-name="dollar" horiz-adv-x="632" unicode="$"/>
<glyph d="M213 348q-103 0 -140 91q-16 40 -16 91q0 121 78 164q35 18 78 18q102 0 139 -91q16 -40 16 -91q0 -120 -78 -164q-34 -18 -77 -18zM237 0h-101v10l474 690h99v-10zM213 427q69 2 70 103q-1 102 -70 103q-70 -2 -71 -103q1 -102 71 -103zM637 355q101 0 139 -89 q17 -41 17 -93q0 -121 -78 -164q-35 -18 -78 -18q-103 0 -140 91q-16 40 -16 91q0 121 78 164q35 18 78 18zM567 173q1 -102 70 -103q69 2 70 103q-1 102 -70 103q-69 -2 -70 -103z" glyph-name="percent" horiz-adv-x="850" unicode="%"/>
<glyph d="M573 398h117v-10q-61 -151 -132 -244l125 -134v-10h-141l-59 65q-91 -74 -198 -74q-95 1 -163 53q-66 53 -66 143q0 98 100 169q18 12 38 24l-2 2q-68 74 -73 141q-1 8 -1 15q1 72 52 121q52 48 135 50h2q86 -1 138 -49q53 -49 53 -120q0 -90 -105 -160q-16 -11 -35 -22 l127 -135q48 69 88 175zM306 611h-2q-51 -1 -69 -43q-6 -14 -6 -30q1 -46 56 -101l5 -6q80 44 92 84q3 11 3 22q0 56 -51 70q-13 4 -28 4zM285 95q68 1 127 47l-151 164q-73 -45 -84 -91q-3 -14 -3 -28q0 -54 52 -79q27 -13 59 -13z" glyph-name="ampersand" horiz-adv-x="731" unicode="&amp;"/>
<glyph d="M156 431h-76l-20 152v117h116v-117z" glyph-name="quotesingle" horiz-adv-x="236" unicode="'"/>
<glyph d="M208 759h88v-10q-150 -197 -150 -453t150 -453v-10h-88q-73 85 -121 204q-48 121 -48 259q0 251 151 442q9 11 18 21z" glyph-name="parenleft" horiz-adv-x="365" unicode="("/>
<glyph d="M69 759h88q154 -179 168 -421q1 -21 1 -42q0 -139 -48 -259q-49 -120 -121 -204h-88v10q150 197 150 453t-150 453v10z" glyph-name="parenright" horiz-adv-x="365" unicode=")"/>
<glyph d="M292 365h-93l15 125l-4 3l-102 -73l-42 83l120 37v4l-120 38l42 83l101 -73l4 4l-14 124h93l-15 -124l4 -4l101 73l43 -83l-121 -38v-4l121 -37l-43 -83l-102 73l-4 -3z" glyph-name="asterisk" horiz-adv-x="486" unicode="*"/>
<glyph d="M297 66h-106v198h-186v98h186v198h106v-198h183v-98h-183v-198z" glyph-name="plus" horiz-adv-x="485" unicode="+"/>
<glyph d="M119 -138h-90v10l31 235h129v-10z" glyph-name="comma" horiz-adv-x="238" unicode=","/>
<glyph d="M386 241h-306v104h306v-104z" glyph-name="hyphen" horiz-adv-x="466" unicode="-"/>
<glyph d="M122 -9q-61 0 -71 54q-2 9 -2 19q0 60 53 71q10 2 20 2q55 0 69 -48q3 -12 3 -25q0 -55 -47 -69q-12 -4 -25 -4z" glyph-name="period" horiz-adv-x="243" unicode="."/>
<glyph d="M121 -133h-106v10l281 860h107v-10z" glyph-name="slash" horiz-adv-x="418" unicode="/"/>
<glyph d="M57 352q0 165 62 263q64 97 195 97q133 -1 194 -97q63 -98 63 -263q0 -166 -63 -264q-62 -97 -194 -97q-132 1 -195 97q-62 99 -62 264zM454 352q0 213 -92 250q-22 8 -48 8q-107 0 -132 -141q-8 -50 -8 -117q0 -203 81 -246q26 -13 59 -13q102 0 129 128q11 53 11 131z " glyph-name="zero" horiz-adv-x="628" unicode="0"/>
<glyph d="M336 0h-115v579h-4l-161 -123h-10v112l174 132h116v-700z" glyph-name="one" horiz-adv-x="425" unicode="1"/>
<glyph d="M517 0h-463v92l235 253q63 70 79 95q21 32 21 71q0 72 -64 92q-20 7 -44 7q-86 0 -109 -72q-7 -22 -7 -47h-113q1 102 61 161q61 60 168 60q102 -1 163 -55q62 -57 62 -142q-1 -55 -28 -102q-32 -52 -97 -121l-172 -184v-4h308v-104z" glyph-name="two" horiz-adv-x="569" unicode="2"/>
<glyph d="M301 -9q-111 0 -180 57q-68 58 -68 157h114q0 -74 66 -101q30 -12 67 -12q97 0 122 70q6 19 6 40q0 94 -100 109q-18 3 -38 3h-61v101h59q82 0 109 58q9 20 9 43q0 64 -59 86q-23 9 -52 9q-93 0 -113 -75q-4 -17 -4 -34h-115q3 129 106 182q55 28 129 28q97 -1 161 -52 q65 -52 65 -134q-1 -113 -101 -151v-4q82 -25 111 -101q12 -32 12 -66q-1 -92 -64 -153q-64 -60 -181 -60z" glyph-name="three" horiz-adv-x="603" unicode="3"/>
<glyph d="M464 0h-115v139h-314v114l279 447h150v-459h90v-102h-90v-139zM147 245v-4h202v329h-4z" glyph-name="four" horiz-adv-x="588" unicode="4"/>
<glyph d="M296 -9q-109 1 -176 60q-67 62 -67 151h115q3 -68 63 -96q29 -13 65 -13q98 0 123 86q7 24 7 52q0 88 -65 120q-28 14 -64 14q-74 -1 -119 -61h-114l27 396h409v-103h-313l-13 -184h4q50 48 136 48q104 -1 166 -65q62 -66 62 -163q0 -141 -99 -204q-61 -38 -147 -38z" glyph-name="five" horiz-adv-x="594" unicode="5"/>
<glyph d="M314 -9q-130 1 -194 93q-63 94 -63 255q0 166 66 269q69 103 201 104q97 -1 158 -54t72 -136h-112q-11 62 -74 81q-21 6 -44 6q-111 0 -144 -128q-12 -46 -12 -105h4q53 80 160 81q106 -1 167 -67q62 -69 62 -161q-1 -104 -67 -171q-68 -67 -180 -67zM315 93q80 0 114 64 q17 31 17 70q0 86 -65 119q-29 15 -66 15q-82 0 -116 -65q-16 -31 -16 -68q0 -84 63 -119q31 -16 69 -16z" glyph-name="six" horiz-adv-x="618" unicode="6"/>
<glyph d="M220 0h-119v10q80 302 290 581v4h-359v105h477v-110q-213 -293 -289 -590z" glyph-name="seven" horiz-adv-x="541" unicode="7"/>
<glyph d="M435 373v-4q114 -46 115 -171q0 -122 -105 -176q-61 -30 -144 -31q-153 1 -216 93q-33 49 -33 114q1 126 115 171v4q-93 46 -94 154q1 84 62 134q64 49 166 51q103 -2 165 -51q63 -50 63 -134q-1 -109 -94 -154zM189 516q0 -64 59 -88q24 -10 53 -10q76 0 102 54 q10 20 10 44q0 72 -69 91q-20 5 -43 5q-87 0 -107 -64q-5 -15 -5 -32zM301 91q106 1 127 78q5 17 5 36q0 84 -81 106q-23 7 -51 7q-105 -1 -127 -77q-5 -17 -5 -36q0 -87 85 -108q22 -6 47 -6z" glyph-name="eight" horiz-adv-x="602" unicode="8"/>
<glyph d="M293 -9q-97 1 -159 53q-60 54 -71 137h113q9 -62 73 -81q21 -6 44 -6q110 0 144 124q13 48 13 109h-4q-54 -80 -161 -81q-106 1 -167 67q-61 68 -61 161q1 103 67 170q69 68 180 68q130 -1 193 -94q64 -93 64 -254q0 -106 -27 -189q-39 -120 -140 -164q-47 -20 -101 -20z M303 342q82 0 116 65q16 31 16 68q0 82 -62 118q-31 17 -70 17q-80 0 -114 -64q-17 -31 -17 -70q0 -86 65 -119q29 -15 66 -15z" glyph-name="nine" horiz-adv-x="618" unicode="9"/>
<glyph d="M122 331q-60 0 -71 53q-2 11 -2 21q0 58 52 70q10 2 21 2q56 0 69 -48q3 -12 3 -24q0 -56 -47 -71q-12 -3 -25 -3zM122 -9q-61 0 -71 54q-2 9 -2 19q0 60 53 71q10 2 20 2q55 0 69 -48q3 -12 3 -25q0 -55 -47 -69q-12 -4 -25 -4z" glyph-name="colon" horiz-adv-x="238" unicode=":"/>
<glyph d="M122 331q-60 0 -71 53q-2 11 -2 21q0 58 52 70q10 2 21 2q56 0 69 -48q3 -12 3 -24q0 -56 -47 -71q-12 -3 -25 -3zM119 -138h-90v10l31 235h129v-10z" glyph-name="semicolon" horiz-adv-x="238" unicode=";"/>
<glyph d="M479 100v-112l-438 247v98l438 247v-112l-327 -182v-4z" glyph-name="less" horiz-adv-x="520" unicode="&lt;"/>
<glyph d="M480 360h-475v98h475v-98zM480 157h-475v98h475v-98z" glyph-name="equal" horiz-adv-x="485" unicode="="/>
<glyph d="M479 235l-438 -247v112l327 182v4l-327 182v112l438 -247v-98z" glyph-name="greater" horiz-adv-x="520" unicode="&gt;"/>
<glyph d="M314 222h-110v16q0 59 20 91q23 34 70 72l32 25q50 41 52 92q0 62 -56 83q-22 8 -48 8q-94 0 -109 -82q-2 -14 -2 -28h-116q1 93 58 151q59 60 169 60q100 -1 161 -52q61 -53 61 -135q-1 -95 -76 -153l-42 -33q-38 -29 -51 -48q-13 -18 -13 -51v-16zM261 -9q-62 0 -71 57 q-1 8 -1 16q0 63 56 72q8 1 16 1q55 0 69 -48q3 -12 3 -25q0 -55 -47 -69q-12 -4 -25 -4z" glyph-name="question" horiz-adv-x="543" unicode="?"/>
<glyph d="M462 -100q-182 1 -296 107q-114 107 -114 297q1 178 119 291q120 114 300 114q166 -1 272 -96q107 -97 107 -255q0 -171 -91 -235q-43 -29 -99 -29q-68 0 -96 44q-6 12 -9 24h-4q-42 -64 -125 -65q-94 0 -138 83q-25 49 -25 114q1 89 46 145q47 57 125 57q58 0 95 -41 q8 -10 13 -19h4l7 49h81l-9 -256q0 -53 47 -54q57 0 81 83q12 43 12 100q-1 123 -81 196q-81 75 -216 75q-144 -1 -236 -95q-91 -95 -91 -236q1 -147 88 -232q89 -85 234 -85q122 0 205 35v-79q-82 -37 -206 -37zM443 180q71 0 91 74q6 23 6 50q0 80 -54 104q-18 7 -37 7 q-64 0 -85 -67q-8 -25 -8 -55q0 -85 55 -107q15 -6 32 -6z" glyph-name="at" horiz-adv-x="903" unicode="@"/>
<glyph d="M271 700h147l251 -690v-10h-128l-55 162h-286l-55 -162h-124v10zM341 577l-106 -312h216l-106 312h-4z" glyph-name="A" horiz-adv-x="691" unicode="A"/>
<glyph d="M401 0h-314v700h304q124 0 178 -80q29 -44 29 -102q-1 -99 -80 -143v-4q105 -46 106 -169q0 -128 -103 -177q-51 -25 -120 -25zM203 596v-183h166q104 0 110 86v10q0 73 -76 85q-13 2 -27 2h-173zM203 311v-206h181q91 0 114 65q6 18 6 38q0 82 -80 99q-19 4 -40 4h-181z " glyph-name="B" horiz-adv-x="666" unicode="B"/>
<glyph d="M369 -9q-154 1 -238 98q-84 100 -84 260q0 162 84 261q85 99 238 99q127 -1 205 -71q77 -71 88 -185h-120q-10 103 -98 136q-34 12 -75 12q-103 -1 -152 -70q-50 -71 -50 -182q0 -174 106 -229q42 -22 96 -22q135 0 169 120q3 11 5 22h119q-14 -111 -90 -180 q-77 -69 -203 -69z" glyph-name="C" horiz-adv-x="709" unicode="C"/>
<glyph d="M323 0h-236v700h236q151 0 243 -96q91 -96 91 -254q-1 -152 -89 -251q-89 -99 -245 -99zM200 594v-489h114q147 0 200 119q23 54 23 126q0 157 -104 216q-50 28 -119 28h-114z" glyph-name="D" horiz-adv-x="704" unicode="D"/>
<glyph d="M559 0h-472v700h472v-106h-355v-180h324v-106h-324v-203h355v-105z" glyph-name="E" horiz-adv-x="610" unicode="E"/>
<glyph d="M204 0h-117v700h465v-106h-348v-198h316v-106h-316v-290z" glyph-name="F" horiz-adv-x="604" unicode="F"/>
<glyph d="M367 -9q-154 1 -237 98q-83 99 -83 259q1 163 83 262q84 99 237 99q127 -1 205 -68q80 -67 90 -174h-120q-13 95 -103 124q-33 10 -72 10q-142 0 -185 -138q-15 -51 -15 -115q0 -181 112 -232q39 -18 88 -18q121 0 166 93q17 35 20 77h-166v104h284v-67q-1 -143 -83 -229 q-83 -85 -221 -85z" glyph-name="G" horiz-adv-x="718" unicode="G"/>
<glyph d="M531 415v285h117v-700h-117v308h-327v-308h-117v700h117v-285h327z" glyph-name="H" horiz-adv-x="735" unicode="H"/>
<glyph d="M205 0h-118v700h118v-700z" glyph-name="I" horiz-adv-x="292" unicode="I"/>
<glyph d="M239 -9q-101 1 -160 59q-58 60 -58 154h116q1 -86 75 -101q14 -3 29 -3q86 0 100 82q2 14 2 28v490h118v-490q0 -128 -92 -186q-55 -33 -130 -33z" glyph-name="J" horiz-adv-x="538" unicode="J"/>
<glyph d="M629 690l-308 -323l319 -357v-10h-139l-297 333v-333h-117v700h117v-301l287 301h138v-10z" glyph-name="K" horiz-adv-x="650" unicode="K"/>
<glyph d="M534 0h-447v700h117v-594h330v-106z" glyph-name="L" horiz-adv-x="552" unicode="L"/>
<glyph d="M200 0h-113v700h133l219 -382h4l219 382h131v-700h-113v514h-4l-231 -396h-10l-231 399h-4v-517z" glyph-name="M" horiz-adv-x="880" unicode="M"/>
<glyph d="M202 0h-115v700h134l315 -514h4v514h116v-700h-135l-315 511h-4v-511z" glyph-name="N" horiz-adv-x="743" unicode="N"/>
<glyph d="M370 -9q-159 1 -241 100q-82 101 -82 259q1 159 82 259q83 100 241 100q158 -1 240 -100q83 -102 83 -259q-1 -158 -83 -259q-83 -100 -240 -100zM370 601q-104 -1 -154 -69q-49 -69 -49 -182q0 -175 107 -230q42 -21 96 -21q141 0 186 132q17 52 17 119q0 175 -107 230 q-42 21 -96 21z" glyph-name="O" horiz-adv-x="740" unicode="O"/>
<glyph d="M204 0h-117v700h284q107 0 168 -63q63 -63 63 -162q-1 -102 -63 -166q-63 -64 -168 -64h-167v-245zM204 595v-244h147q108 0 127 88q4 17 4 36q0 86 -75 111q-25 9 -56 9h-147z" glyph-name="P" horiz-adv-x="649" unicode="P"/>
<glyph d="M693 350q-1 -182 -103 -280l94 -133v-10h-121l-62 87q-60 -23 -131 -23q-159 1 -241 100q-82 101 -82 259q1 159 82 259q83 100 241 100q158 -1 240 -100q83 -102 83 -259zM370 99q37 0 65 9l-88 125v10h121l54 -77q51 68 51 184q0 175 -107 230q-42 21 -96 21 q-104 -1 -154 -69q-49 -69 -49 -182q0 -175 107 -230q42 -21 96 -21z" glyph-name="Q" horiz-adv-x="740" unicode="Q"/>
<glyph d="M467 278l179 -268v-10h-133l-169 264h-140v-264h-117v700h296q105 -1 167 -62q62 -63 62 -154q0 -114 -84 -175q-28 -20 -61 -31zM376 594h-172v-224h172q91 0 111 76q4 18 4 37q0 85 -73 106q-19 5 -42 5z" glyph-name="R" horiz-adv-x="670" unicode="R"/>
<glyph d="M315 -9q-179 0 -246 116q-29 50 -32 116h119q6 -95 98 -120q28 -7 61 -7q153 1 154 100q0 63 -76 89q-15 4 -32 8l-102 22q-165 36 -193 144q-6 25 -6 54q1 90 69 142q70 54 187 54q116 -1 188 -60q72 -60 74 -157h-119q-5 88 -98 107q-22 4 -47 4q-132 -1 -133 -90 q0 -65 102 -87l95 -20q211 -45 212 -208q0 -131 -124 -182q-63 -25 -151 -25z" glyph-name="S" horiz-adv-x="632" unicode="S"/>
<glyph d="M355 0h-118v594h-211v106h540v-106h-211v-594z" glyph-name="T" horiz-adv-x="592" unicode="T"/>
<glyph d="M356 -9q-127 1 -203 70q-76 71 -76 199v440h117v-438q0 -136 114 -160q23 -5 48 -5q138 0 159 122q4 20 4 43v438h118v-440q-1 -128 -77 -199q-77 -70 -204 -70z" glyph-name="U" horiz-adv-x="714" unicode="U"/>
<glyph d="M407 0h-132l-254 690v10h129l190 -553h4l186 553h131v-10z" glyph-name="V" horiz-adv-x="682" unicode="V"/>
<glyph d="M325 0h-137l-167 690v10h121l117 -529h4l136 529h126l138 -529h4l115 529h121v-10l-168 -690h-137l-133 518h-4z" glyph-name="W" horiz-adv-x="924" unicode="W"/>
<glyph d="M156 0h-138v10l230 340v4l-222 336v10h137l168 -267h4l169 267h135v-10l-220 -336v-4l224 -340v-10h-138l-172 264h-4z" glyph-name="X" horiz-adv-x="661" unicode="X"/>
<glyph d="M395 0h-118v286l-256 404v10h135l179 -298h4l176 298h134v-10l-254 -403v-287z" glyph-name="Y" horiz-adv-x="670" unicode="Y"/>
<glyph d="M561 0h-525v103l373 486v4h-364v107h510v-105l-372 -485v-4h378v-106z" glyph-name="Z" horiz-adv-x="597" unicode="Z"/>
<glyph d="M267 -167h-226v926h224v-88h-126v-750h128v-88z" glyph-name="bracketleft" horiz-adv-x="342" unicode="["/>
<glyph d="M403 -133h-106l-282 860v10h107l281 -860v-10z" glyph-name="backslash" horiz-adv-x="418" unicode="\"/>
<glyph d="M300 -167h-225v88h128v750h-126v88h223v-926z" glyph-name="bracketright" horiz-adv-x="342" unicode="]"/>
<glyph d="M153 310h-109v10l197 380h106l197 -380v-10h-109l-139 280h-4z" glyph-name="asciicircum" horiz-adv-x="588" unicode="^"/>
<glyph d="M527 -119h-480v92h480v-92z" glyph-name="underscore" horiz-adv-x="574" unicode="_"/>
<glyph d="M239 583h-90l-116 140v10h134l72 -140v-10z" glyph-name="grave" horiz-adv-x="272" unicode="`"/>
<glyph d="M219 -9q-83 0 -132 45q-48 47 -48 116q0 107 104 144q46 16 107 16q62 0 120 -17v48q0 67 -64 84q-18 4 -38 4q-69 0 -91 -48q-5 -14 -6 -29h-108q0 94 81 141q53 30 126 30q99 0 156 -51q57 -52 57 -130v-344h-100l-8 61h-4q-49 -70 -152 -70zM245 82q75 0 109 55 q16 27 16 58v17q-53 18 -112 18q-95 0 -104 -62q-1 -7 -1 -12q0 -55 57 -70q16 -4 35 -4z" glyph-name="a" unicode="a"/>
<glyph d="M191 62h-4l-13 -62h-101v740h114v-286h4q48 71 147 71q102 -1 158 -74q57 -73 57 -192q-1 -122 -58.5 -195t-156.5 -73q-100 1 -147 71zM310 92q99 0 122 106q6 28 6 61q0 127 -81 157q-22 8 -47 8q-89 0 -117 -91q-10 -33 -10 -74q0 -117 70 -154q26 -13 57 -13z" glyph-name="b" horiz-adv-x="593" unicode="b"/>
<glyph d="M285 -9q-118 1 -182 72q-64 74 -64 195q0 162 104 230q58 37 139 37q143 0 198 -103q22 -42 26 -94h-114q-6 70 -69 90q-19 6 -41 6q-105 0 -123 -117q-4 -23 -4 -49q0 -145 98 -164q14 -3 29 -3q82 0 105 69q4 13 6 27h114q-10 -129 -114 -175q-47 -21 -108 -21z" glyph-name="c" unicode="c"/>
<glyph d="M254 -9q-99 1 -157 73q-56 74 -58 195q1 119 57 192q58 74 158 74q101 -1 148 -71h4v286h114v-740h-101l-13 62h-4q-48 -71 -148 -71zM282 92q87 0 116 88q12 36 12 79q0 122 -76 155q-24 10 -52 10q-99 0 -121 -106q-6 -27 -6 -59q0 -136 88 -162q19 -5 39 -5z" glyph-name="d" horiz-adv-x="583" unicode="d"/>
<glyph d="M283 -9q-115 1 -179 75q-65 76 -65 192q1 117 62 192q63 75 180 75q109 -1 171 -71q62 -72 62 -180v-48h-357q0 -99 72 -129q24 -10 54 -10q93 1 113 70h111q-11 -72 -73 -119q-63 -47 -151 -47zM158 307h239q-1 88 -68 113q-22 8 -48 8q-91 0 -116 -79q-6 -20 -7 -42z " glyph-name="e" horiz-adv-x="554" unicode="e"/>
<glyph d="M231 0h-114v420h-91v96h91v63q0 100 78 146q44 25 101 25q35 0 64 -7v-96q-30 5 -50 5q-78 -2 -79 -73v-63h124v-96h-124v-420z" glyph-name="f" horiz-adv-x="395" unicode="f"/>
<glyph d="M281 -238q-100 1 -163 51q-62 51 -64 131h111q4 -52 60 -74q25 -10 56 -10q91 0 117 68q8 21 8 46v88h-4q-48 -71 -148 -71q-101 1 -158 74q-55 74 -57 193q2 123 58 194q59 73 157 73q101 -1 148 -71h4l13 62h101v-544q-1 -93 -66 -151q-66 -59 -173 -59zM282 92 q93 0 120 97q8 31 8 69q0 113 -68 151q-27 15 -60 15q-103 0 -123 -114q-4 -25 -4 -52q0 -138 91 -162q17 -4 36 -4z" glyph-name="g" horiz-adv-x="583" unicode="g"/>
<glyph d="M187 0h-114v740h114v-291h4q49 76 150 76q117 0 164 -87q23 -44 23 -101v-337h-114v309q-2 112 -106 113q-75 0 -106 -66q-15 -32 -15 -72v-284z" glyph-name="h" horiz-adv-x="591" unicode="h"/>
<glyph d="M57 667q0 62 58 70q8 1 15 1q35 -1 54 -19q19 -20 19 -52q-1 -34 -19 -53q-20 -19 -54 -19q-63 0 -72 56q-1 8 -1 16zM187 0h-114v516h114v-516z" glyph-name="i" horiz-adv-x="250" unicode="i"/>
<glyph d="M67 667q0 62 58 70q8 1 15 1q35 -1 54 -19q19 -20 19 -52q-1 -34 -19 -53q-20 -19 -54 -19q-63 0 -72 56q-1 8 -1 16zM31 -238q-29 0 -52 7v100q20 -3 38 -3q65 2 66 73v577h114v-593q0 -124 -104 -153q-29 -8 -62 -8z" glyph-name="j" horiz-adv-x="259" unicode="j"/>
<glyph d="M511 506l-209 -224l217 -272v-10h-135l-201 254v-254h-110v740h110v-434l194 210h134v-10z" glyph-name="k" horiz-adv-x="535" unicode="k"/>
<glyph d="M187 0h-114v740h114v-740z" glyph-name="l" horiz-adv-x="250" unicode="l"/>
<glyph d="M655 525q114 0 160 -86q24 -44 24 -102v-337h-114v309q-2 112 -100 113q-77 0 -101 -76q-9 -27 -9 -61v-285h-113v309q-2 112 -100 113q-73 0 -102 -67q-13 -31 -13 -70v-285h-114v516h101l9 -67h4q49 75 149 76q110 -1 155 -81h3q51 80 161 81z" glyph-name="m" horiz-adv-x="902" unicode="m"/>
<glyph d="M187 0h-114v516h101l9 -67h4q49 76 151 76q118 0 164 -88q22 -43 22 -100v-337h-114v309q-2 112 -105 113q-78 0 -106 -70q-12 -30 -12 -67v-285z" glyph-name="n" horiz-adv-x="587" unicode="n"/>
<glyph d="M283 -9q-119 1 -182 74q-62 75 -62 193t63 192q65 75 181 75q117 0 180 -75q64 -74 64 -192q-1 -120 -63 -193q-64 -74 -181 -74zM283 92q127 2 128 166q-1 78 -32 122q-33 44 -96 44q-64 -1 -96 -44q-32 -45 -32 -122q0 -138 91 -162q18 -4 37 -4z" glyph-name="o" horiz-adv-x="566" unicode="o"/>
<glyph d="M187 -229h-114v745h101l13 -62h4q48 71 147 71q99 -1 157 -73t58 -194q-1 -120 -57 -193q-57 -74 -158 -74q-100 1 -147 71h-4v-291zM310 92q100 0 123 108q5 27 5 58q0 133 -86 160q-20 6 -42 6q-89 0 -117 -91q-10 -34 -10 -75q0 -117 71 -153q25 -13 56 -13z" glyph-name="p" horiz-adv-x="593" unicode="p"/>
<glyph d="M520 -229h-114v291h-4q-48 -71 -148 -71q-101 1 -158 74q-55 74 -57 193q2 123 58 194q59 73 157 73q101 -1 148 -71h4l13 62h101v-745zM282 92q93 0 120 97q8 31 8 69q0 113 -68 151q-27 15 -60 15q-103 0 -123 -114q-4 -25 -4 -52q0 -138 91 -162q17 -4 36 -4z" glyph-name="q" horiz-adv-x="583" unicode="q"/>
<glyph d="M183 0h-110v516h96l10 -82h4q27 72 102 86q16 3 32 3h42v-106h-44q-108 0 -128 -114q-4 -24 -4 -51v-252z" glyph-name="r" horiz-adv-x="390" unicode="r"/>
<glyph d="M258 -9q-142 0 -195 91q-22 40 -24 90h114q0 -59 60 -77q21 -6 45 -6q98 1 99 58q-2 45 -68 59l-91 17q-142 30 -143 152q0 82 78 123q51 27 121 27q119 0 175 -73q31 -42 31 -96h-112q-4 63 -70 75q-13 2 -26 2q-69 0 -83 -42q-3 -9 -3 -17q2 -45 68 -56l88 -17 q113 -24 140 -92q10 -27 10 -62q-1 -73 -61 -115q-62 -41 -153 -41z" glyph-name="s" horiz-adv-x="511" unicode="s"/>
<glyph d="M269 -9q-153 0 -153 150v278h-85v97h90v109l99 28h10v-137h125v-97h-125v-258q0 -62 50 -69q9 -1 17 -1q29 0 50 7h10v-96q-37 -11 -88 -11z" glyph-name="t" horiz-adv-x="402" unicode="t"/>
<glyph d="M397 214v302h114v-320q0 -115 -88 -170q-56 -34 -134 -34q-106 1 -164 57q-58 59 -58 147v320h114v-302q0 -117 108 -117t108 117z" glyph-name="u" horiz-adv-x="578" unicode="u"/>
<glyph d="M336 0h-134l-186 506v10h117l135 -398h4l131 398h116v-10z" glyph-name="v" horiz-adv-x="535" unicode="v"/>
<glyph d="M290 0h-137l-137 506v10h114l92 -380h4l99 380h137l99 -380h4l92 380h113v-10l-137 -506h-137l-99 380h-4z" glyph-name="w" horiz-adv-x="786" unicode="w"/>
<glyph d="M136 0h-124v10l171 250l-165 246v10h123l117 -183h4l116 183h123v-10l-165 -245l170 -251v-10h-124l-120 188h-4z" glyph-name="x" horiz-adv-x="518" unicode="x"/>
<glyph d="M254 -229h-120v10l82 221l-12 1l-188 503v10h119l134 -388h4l134 388h121v-10z" glyph-name="y" horiz-adv-x="544" unicode="y"/>
<glyph d="M456 0h-410v95l270 320v4h-269v97h407v-96l-269 -319v-4h271v-97z" glyph-name="z" horiz-adv-x="502" unicode="z"/>
<glyph d="M146 298v-4q85 -14 86 -108v-172q0 -74 51 -88q16 -4 36 -4h36v-89h-55q-135 0 -161 112q-5 24 -5 51v161q0 87 -93 90v98q93 3 93 90v161q0 132 112 157q25 6 54 6h55v-89h-36q-70 0 -83 -54q-4 -17 -4 -38v-172q-2 -95 -86 -108z" glyph-name="braceleft" horiz-adv-x="430" unicode="{"/>
<glyph d="M187 -138h-100v898h100v-898z" glyph-name="bar" horiz-adv-x="274" unicode="|"/>
<glyph d="M296 596v-161q0 -87 93 -90v-98q-93 -3 -93 -90v-161q0 -132 -112 -157q-25 -6 -54 -6h-55v89h36q70 0 83 54q4 17 4 38v172q2 95 86 108v4q-85 14 -86 108v172q0 74 -51 88q-16 4 -36 4h-36v89h55q135 0 161 -112q5 -24 5 -51z" glyph-name="braceright" horiz-adv-x="430" unicode="}"/>
<glyph d="M376 208q-48 1 -97 27l-46 25q-29 15 -54 15q-55 0 -81 -57l-66 46q45 108 147 108q47 -1 94 -26l46 -25q28 -16 57 -16q56 1 82 57l66 -46q-46 -107 -148 -108z" glyph-name="asciitilde" horiz-adv-x="556" unicode="~"/>
<glyph glyph-name="uni00A0" horiz-adv-x="291" unicode=" "/>
<glyph d="M133 379q-62 0 -71 57q-1 8 -1 16q0 63 56 72q8 1 16 1q55 0 69 -48q3 -12 3 -25q0 -55 -47 -69q-12 -4 -25 -4zM196 -189h-124v96l21 382h77l26 -382v-96z" glyph-name="exclamdown" horiz-adv-x="266" unicode="¡"/>
<glyph d="M393 277h114q-9 -127 -110 -174q-34 -16 -75 -20v-83h-81v84q-129 17 -178 134q-24 57 -24 130q0 161 104 229q43 27 98 35v88h81v-87q122 -16 166 -117q15 -36 18 -78h-114q-7 70 -70 90v-322q63 21 71 91zM155 348q1 -135 86 -161v321q-85 -27 -86 -160z" glyph-name="cent" unicode="¢"/>
<glyph d="M574 0h-537v102q73 3 74 80v113h-75v99h75v112q1 87 61 146q62 60 164 60q103 -1 163 -62q60 -62 60 -147h-111q0 67 -52 97q-27 16 -62 16q-76 0 -103 -61q-10 -22 -10 -49v-112h215v-99h-215v-117q0 -57 -33 -75v-4h386v-99z" glyph-name="sterling" horiz-adv-x="605" unicode="£"/>
<glyph d="M176 59l-70 -73l-69 67l71 74q-33 53 -33 116q1 65 35 119l-73 75l69 68l73 -76q53 33 113 33q59 -1 110 -30l70 73l69 -68l-68 -71q38 -60 38 -123q-1 -69 -37 -120l67 -70l-68 -67l-68 70q-51 -31 -113 -31q-62 1 -116 34zM205 153q36 -35 87 -35q51 1 86 35 q35 37 35 90q-1 54 -35 89q-36 35 -86 35q-52 -1 -87 -35q-35 -36 -35 -89q1 -54 35 -90z" glyph-name="currency" horiz-adv-x="579" unicode="¤"/>
<glyph d="M515 700h134v-10l-188 -300h110v-94h-168l-6 -9v-71h174v-94h-174v-122h-118v122h-180v94h180v70l-6 10h-174v94h114l-192 300v10h140l176 -298h4z" glyph-name="yen" horiz-adv-x="670" unicode="¥"/>
<glyph d="M187 402h-100v358h100v-358zM187 -138h-100v358h100v-358z" glyph-name="brokenbar" horiz-adv-x="274" unicode="¦"/>
<glyph d="M89 -60h100q4 -75 69 -89q13 -3 27 -3q73 0 87 54q3 11 3 22q0 44 -45 78l-189 145q-71 54 -80 120q-2 15 -2 30q1 88 88 137q-41 48 -41 109q1 73 52 119q54 47 140 47q111 0 165 -80q29 -46 31 -105h-100q-4 69 -62 87q-16 5 -34 5q-66 0 -85 -47q-5 -14 -5 -29 q0 -44 45 -78l177 -135q82 -62 92 -133q2 -14 2 -27q-1 -85 -88 -137q41 -48 41 -109q0 -91 -76 -137q-49 -29 -116 -29q-111 0 -165 80q-29 46 -31 105zM199 224l172 -134q51 23 52 72q-1 49 -45 83l-166 129q-51 -25 -52 -75q0 -47 39 -75z" glyph-name="section" horiz-adv-x="583" unicode="§"/>
<glyph d="M113 732q51 0 63 -44q2 -11 2 -21q0 -53 -47 -63q-9 -2 -18 -2q-54 0 -63 48q-2 8 -2 17q0 53 47 63q9 2 18 2zM300 602q-63 4 -65 65q0 58 54 64q6 1 11 1q51 0 63 -44q2 -11 2 -21q0 -53 -47 -63q-9 -2 -18 -2z" glyph-name="dieresis" horiz-adv-x="413" unicode="¨"/>
<glyph d="M760 350q-2 -156 -99 -258q-99 -101 -251 -101q-154 1 -252 101q-96 102 -98 258q2 158 98 257q98 102 252 102q154 -1 251 -102t99 -257zM680 350q-2 129 -73 205q-73 77 -197 77q-125 -1 -197 -77q-71 -77 -73 -205q2 -130 73 -206q72 -76 197 -76q126 1 197 76 q71 77 73 206zM412 216q79 2 89 74h76q-9 -97 -91 -130q-33 -13 -73 -13q-121 0 -162 102q-17 43 -17 98q0 133 89 181q39 20 89 20q103 0 144 -76q17 -31 19 -69h-76q-5 62 -65 73q-11 2 -22 2q-100 -2 -101 -131q2 -130 101 -131z" glyph-name="copyright" horiz-adv-x="820" unicode="©"/>
<glyph d="M160 296q-76 0 -108 55q-13 24 -13 53q0 72 73 96q30 10 68 10q43 0 77 -10v27q-2 55 -65 56q-52 0 -62 -37q-1 -6 -1 -12h-74q0 68 62 99q34 16 76 16q89 0 126 -60q16 -28 16 -61v-226h-69l-6 38h-3q-33 -44 -97 -44zM176 360q54 0 74 40q7 15 7 31v10q-37 12 -72 12 q-66 -1 -67 -47q2 -45 58 -46z" glyph-name="ordfeminine" horiz-adv-x="374" unicode="ª"/>
<glyph d="M303 66h-106l-166 212v10l166 212h106v-10l-140 -207l140 -207v-10zM546 66h-106l-166 212v10l166 212h106v-10l-140 -207l140 -207v-10z" glyph-name="guillemotleft" horiz-adv-x="593" unicode="«"/>
<glyph d="M386 241h-306v104h306v-104z" glyph-name="uni00AD" horiz-adv-x="466" unicode="­"/>
<glyph d="M402 347q-63 -62 -156 -62q-94 1 -156 62q-61 63 -61 157q1 95 61 156q62 63 156 63t156 -63q61 -62 61 -156q-1 -95 -61 -157zM246 343q100 0 138 78q18 36 18 83q0 106 -79 145q-34 16 -77 16q-102 0 -140 -79q-17 -36 -17 -82q0 -106 80 -145q34 -16 77 -16zM217 397 h-52v208h96q51 0 70 -40q6 -13 6 -28q-1 -47 -37 -65l46 -69v-6h-54l-42 67h-33v-67zM217 560v-50h39q26 2 27 25q-2 24 -27 25h-39z" glyph-name="registered" horiz-adv-x="491" unicode="®"/>
<glyph d="M314 613h-281v94h281v-94z" glyph-name="overscore" horiz-adv-x="347" unicode="¯"/>
<glyph d="M221 367q-76 1 -125 49q-50 51 -50 124q1 73 50 123q51 50 125 50q76 -1 126 -50q50 -51 50 -123q-1 -74 -50 -124q-50 -49 -126 -49zM221 446q60 0 82 52q8 20 8 42q0 64 -50 86q-19 8 -40 8q-58 0 -80 -51q-9 -20 -9 -43q0 -60 46 -84q20 -10 43 -10z" glyph-name="degree" horiz-adv-x="443" unicode="°"/>
<glyph d="M297 201h-106v155h-186v97h186v154h106v-154h183v-97h-183v-155zM480 41h-475v98h475v-98z" glyph-name="plusminus" horiz-adv-x="485" unicode="±"/>
<glyph d="M363 251h-318v73l155 145q56 53 64 85q2 10 2 21q0 41 -39 54q-13 4 -26 4q-54 0 -66 -45q-3 -11 -3 -21h-88q1 64 43 104q45 42 114 41q72 -1 112 -40q42 -40 42 -94q0 -60 -52 -116q-14 -14 -30 -29l-108 -99v-3h198v-80z" glyph-name="uni00B2" horiz-adv-x="406" unicode="²"/>
<glyph d="M213 242q-106 0 -149 71q-20 34 -20 76h85q1 -48 50 -63q16 -5 34 -5q68 0 76 52q1 6 1 12q0 48 -55 59q-13 2 -27 2h-47v78h45q70 2 71 57q0 40 -44 50q-12 3 -24 3q-70 -2 -72 -67h-87q3 95 82 130q35 15 79 15q68 1 112 -35t44 -92q-1 -67 -56 -94v-3q55 -22 67 -80 q2 -12 2 -23q0 -87 -75 -124q-40 -19 -92 -19z" glyph-name="uni00B3" horiz-adv-x="424" unicode="³"/>
<glyph d="M123 583h-90v10l72 140h134v-10z" glyph-name="acute" horiz-adv-x="272" unicode="´"/>
<glyph d="M316 -104h-97v457q-78 1 -133 55q-55 56 -55 134q1 78 55 133q56 55 133 55h346v-86h-64v-748h-97v748h-88v-748z" glyph-name="paragraph" horiz-adv-x="627" unicode="¶"/>
<glyph d="M122 227q-60 0 -71 53q-2 11 -2 21q0 58 52 70q10 2 21 2q56 0 69 -48q3 -12 3 -24q0 -56 -47 -71q-12 -3 -25 -3z" glyph-name="middot" horiz-adv-x="238" unicode="·"/>
<glyph d="M154 -222q-80 0 -109 51q-12 20 -12 44h73q0 -24 32 -31q8 -1 15 -1q43 4 47 32q-4 29 -44 31h-32l-25 31l40 79h84l-36 -56q69 -3 90 -53q7 -16 7 -33q0 -62 -66 -85q-29 -9 -64 -9z" glyph-name="cedilla" horiz-adv-x="317" unicode="¸"/>
<glyph d="M247 248h-87v356h-4l-104 -79h-8v88l115 87h88v-452z" glyph-name="uni00B9" horiz-adv-x="291" unicode="¹"/>
<glyph d="M202 296q-104 0 -144 85q-19 40 -19 91q0 108 74 153q38 24 89 24q103 0 144 -85q19 -40 19 -92q0 -111 -76 -155q-38 -21 -87 -21zM281 472q-2 104 -79 105q-78 -2 -79 -105q2 -103 79 -104q78 2 79 104z" glyph-name="ordmasculine" horiz-adv-x="404" unicode="º"/>
<glyph d="M320 278l-166 -212h-106v10l140 207l-140 207v10h106l166 -212v-10zM562 278l-166 -212h-106v10l140 207l-140 207v10h106l166 -212v-10z" glyph-name="guillemotright" horiz-adv-x="593" unicode="»"/>
<glyph d="M247 248h-87v356h-4l-104 -79h-8v88l115 87h88v-452zM268 0h-96v10l434 690h94v-10zM800 0h-87v89h-207v87l179 276h115v-283h57v-80h-57v-89zM594 173v-4h119v183h-4z" glyph-name="onequarter" horiz-adv-x="901" unicode="¼"/>
<glyph d="M247 248h-87v356h-4l-104 -79h-8v88l115 87h88v-452zM268 0h-96v10l434 690h94v-10zM893 0h-319v73l156 146q56 52 64 83q2 10 2 22q0 41 -39 54q-13 4 -27 4q-49 0 -64 -41q-4 -13 -4 -25h-89q0 81 66 121q40 24 91 24q94 0 135 -64q20 -32 20 -70q0 -59 -52 -115 q-13 -15 -30 -30l-108 -99v-3h198v-80z" glyph-name="onehalf" horiz-adv-x="936" unicode="½"/>
<glyph d="M213 242q-106 0 -149 71q-20 34 -20 76h85q1 -48 50 -63q16 -5 34 -5q68 0 76 52q1 6 1 12q0 48 -55 59q-13 2 -27 2h-47v78h45q70 2 71 57q0 40 -44 50q-12 3 -24 3q-70 -2 -72 -67h-87q3 95 82 130q35 15 79 15q68 1 112 -35t44 -92q-1 -67 -56 -94v-3q55 -22 67 -80 q2 -12 2 -23q0 -87 -75 -124q-40 -19 -92 -19zM358 0h-96v10l434 690h94v-10zM890 0h-87v89h-207v87l179 276h115v-283h57v-80h-57v-89zM684 173v-4h119v183h-4z" glyph-name="threequarters" horiz-adv-x="991" unicode="¾"/>
<glyph d="M282 380q-56 0 -69 48q-3 12 -3 24q0 56 47 71q12 3 25 3q67 -9 72 -74q0 -60 -54 -70q-9 -2 -18 -2zM269 -193q-100 1 -161 52q-61 53 -61 135q1 94 76 152l42 33q49 39 58 63q6 15 6 37v16h110v-16q0 -59 -21 -92t-69 -71l-32 -25q-51 -41 -52 -92q0 -62 56 -83 q22 -8 48 -8q94 0 109 82q2 14 2 28h116q-1 -92 -59 -151q-59 -60 -168 -60z" glyph-name="questiondown" horiz-adv-x="543" unicode="¿"/>
<glyph d="M413 777v-10h-90l-116 140v10h134zM271 700h147l251 -690v-10h-128l-55 162h-286l-55 -162h-124v10zM341 577l-106 -312h216l-106 312h-4z" glyph-name="Agrave" horiz-adv-x="691" unicode="À"/>
<glyph d="M491 917v-10l-116 -140h-90v10l72 140h134zM271 700h147l251 -690v-10h-128l-55 162h-286l-55 -162h-124v10zM341 577l-106 -312h216l-106 312h-4z" glyph-name="Aacute" horiz-adv-x="691" unicode="Á"/>
<glyph d="M349 838h-4l-65 -69h-98v10l98 136h134l98 -136v-10h-98zM271 700h147l251 -690v-10h-128l-55 162h-286l-55 -162h-124v10zM341 577l-106 -312h216l-106 312h-4z" glyph-name="Acircumflex" horiz-adv-x="691" unicode="Â"/>
<glyph d="M274 819q-26 0 -32 -29q-1 -6 -1 -12h-73v15q0 81 61 104q19 7 41 7q33 -1 68 -20l15 -9q23 -13 38 -13q31 2 32 40h72v-15q0 -94 -75 -109q-13 -2 -26 -2q-32 1 -67 20l-14 9q-24 14 -39 14zM271 700h147l251 -690v-10h-128l-55 162h-286l-55 -162h-124v10zM341 577 l-106 -312h216l-106 312h-4z" glyph-name="Atilde" horiz-adv-x="691" unicode="Ã"/>
<glyph d="M254 916q51 0 63 -44q2 -11 2 -21q0 -53 -47 -63q-9 -2 -18 -2q-54 0 -63 48q-2 8 -2 17q0 53 47 63q9 2 18 2zM441 786q-63 4 -65 65q0 58 54 64q6 1 11 1q51 0 63 -44q2 -11 2 -21q0 -53 -47 -63q-9 -2 -18 -2zM271 700h147l251 -690v-10h-128l-55 162h-286l-55 -162 h-124v10zM341 577l-106 -312h216l-106 312h-4z" glyph-name="Adieresis" horiz-adv-x="691" unicode="Ä"/>
<glyph d="M343 754q-67 0 -98 53q-15 26 -15 58q0 65 53 96q27 16 60 16q72 0 102 -56q13 -26 13 -56q0 -67 -55 -97q-27 -14 -60 -14zM342 911q-33 3 -42 -31q-9 -32 12 -51q13 -10 30 -9q36 -3 45 30q9 32 -13 51q-14 11 -32 10zM271 700h147l251 -690v-10h-128l-55 162h-286 l-55 -162h-124v10zM341 577l-106 -312h216l-106 312h-4z" glyph-name="Aring" horiz-adv-x="691" unicode="Å"/>
<glyph d="M145 0h-124v10l250 690h590v-106h-404l66 -180h307v-106h-269l74 -203h226v-105h-320l-55 162h-286zM341 577l-107 -312h218l-107 312h-4z" glyph-name="AE" horiz-adv-x="913" unicode="Æ"/>
<glyph d="M369 98q135 0 169 120q3 11 5 22h119q-13 -105 -81 -172q-69 -67 -181 -76l-22 -34q69 -3 90 -53q7 -16 7 -33q0 -62 -66 -85q-29 -9 -64 -9q-80 0 -109 51q-12 20 -12 44h73q0 -24 32 -31q8 -1 15 -1q43 4 47 32q-4 29 -44 31h-32l-25 31l30 59q-133 17 -203 112 q-70 96 -70 243q0 162 84 261q85 99 238 99q127 -1 205 -71q77 -71 88 -185h-120q-10 103 -98 136q-34 12 -75 12q-103 -1 -152 -70q-50 -71 -50 -182q0 -174 106 -229q42 -22 96 -22z" glyph-name="Ccedilla" horiz-adv-x="709" unicode="Ç"/>
<glyph d="M401 767h-90l-116 140v10h134l72 -140v-10zM559 0h-472v700h472v-106h-355v-180h324v-106h-324v-203h355v-105z" glyph-name="Egrave" horiz-adv-x="610" unicode="È"/>
<glyph d="M363 767h-90v10l72 140h134v-10zM559 0h-472v700h472v-106h-355v-180h324v-106h-324v-203h355v-105z" glyph-name="Eacute" horiz-adv-x="610" unicode="É"/>
<glyph d="M268 769h-98v10l98 136h134l98 -136v-10h-98l-65 69h-4zM559 0h-472v700h472v-106h-355v-180h324v-106h-324v-203h355v-105z" glyph-name="Ecircumflex" horiz-adv-x="610" unicode="Ê"/>
<glyph d="M242 916q51 0 63 -44q2 -11 2 -21q0 -53 -47 -63q-9 -2 -18 -2q-54 0 -63 48q-2 8 -2 17q0 53 47 63q9 2 18 2zM429 786q-63 4 -65 65q0 58 54 64q6 1 11 1q51 0 63 -44q2 -11 2 -21q0 -53 -47 -63q-9 -2 -18 -2zM559 0h-472v700h472v-106h-355v-180h324v-106h-324v-203 h355v-105z" glyph-name="Edieresis" horiz-adv-x="610" unicode="Ë"/>
<glyph d="M216 767h-90l-116 140v10h134l72 -140v-10zM205 0h-118v700h118v-700z" glyph-name="Igrave" horiz-adv-x="292" unicode="Ì"/>
<glyph d="M178 767h-90v10l72 140h134v-10zM205 0h-118v700h118v-700z" glyph-name="Iacute" horiz-adv-x="292" unicode="Í"/>
<glyph d="M83 769h-98v10l98 136h134l98 -136v-10h-98l-65 69h-4zM205 0h-118v700h118v-700z" glyph-name="Icircumflex" horiz-adv-x="292" unicode="Î"/>
<glyph d="M57 916q51 0 63 -44q2 -11 2 -21q0 -53 -47 -63q-9 -2 -18 -2q-54 0 -63 48q-2 8 -2 17q0 53 47 63q9 2 18 2zM244 786q-63 4 -65 65q0 58 54 64q6 1 11 1q51 0 63 -44q2 -11 2 -21q0 -53 -47 -63q-9 -2 -18 -2zM205 0h-118v700h118v-700z" glyph-name="Idieresis" horiz-adv-x="292" unicode="Ï"/>
<glyph d="M134 700h236q152 0 243 -96t91 -254q-1 -152 -89 -251q-89 -99 -245 -99h-236v311h-71v102h71v287zM247 105h114q147 0 200 119q23 54 23 126q0 157 -104 216q-50 28 -119 28h-114v-181h173v-102h-173v-206z" glyph-name="Eth" horiz-adv-x="751" unicode="Ð"/>
<glyph d="M440 776q-32 1 -67 20l-14 9q-24 14 -39 14q-26 0 -32 -29q-1 -6 -1 -12h-73v15q0 81 61 104q19 7 41 7q33 -1 68 -20l15 -9q23 -13 38 -13q31 2 32 40h72v-15q0 -94 -75 -109q-13 -2 -26 -2zM202 0h-115v700h134l315 -514h4v514h116v-700h-135l-315 511h-4v-511z" glyph-name="Ntilde" horiz-adv-x="743" unicode="Ñ"/>
<glyph d="M442 767h-90l-116 140v10h134l72 -140v-10zM370 -9q-159 1 -241 100q-82 101 -82 259q1 159 82 259q83 100 241 100q158 -1 240 -100q83 -102 83 -259q-1 -158 -83 -259q-83 -100 -240 -100zM370 601q-104 -1 -154 -69q-49 -69 -49 -182q0 -175 107 -230q42 -21 96 -21 q141 0 186 132q17 52 17 119q0 175 -107 230q-42 21 -96 21z" glyph-name="Ograve" horiz-adv-x="740" unicode="Ò"/>
<glyph d="M404 767h-90v10l72 140h134v-10zM370 -9q-159 1 -241 100q-82 101 -82 259q1 159 82 259q83 100 241 100q158 -1 240 -100q83 -102 83 -259q-1 -158 -83 -259q-83 -100 -240 -100zM370 601q-104 -1 -154 -69q-49 -69 -49 -182q0 -175 107 -230q42 -21 96 -21 q141 0 186 132q17 52 17 119q0 175 -107 230q-42 21 -96 21z" glyph-name="Oacute" horiz-adv-x="740" unicode="Ó"/>
<glyph d="M309 769h-98v10l98 136h134l98 -136v-10h-98l-65 69h-4zM370 -9q-159 1 -241 100q-82 101 -82 259q1 159 82 259q83 100 241 100q158 -1 240 -100q83 -102 83 -259q-1 -158 -83 -259q-83 -100 -240 -100zM370 601q-104 -1 -154 -69q-49 -69 -49 -182q0 -175 107 -230 q42 -21 96 -21q141 0 186 132q17 52 17 119q0 175 -107 230q-42 21 -96 21z" glyph-name="Ocircumflex" horiz-adv-x="740" unicode="Ô"/>
<glyph d="M423 776q-32 1 -67 20l-14 9q-24 14 -39 14q-26 0 -32 -29q-1 -6 -1 -12h-73v15q0 81 61 104q19 7 41 7q33 -1 68 -20l15 -9q23 -13 38 -13q31 2 32 40h72v-15q0 -94 -75 -109q-13 -2 -26 -2zM370 -9q-159 1 -241 100q-82 101 -82 259q1 159 82 259q83 100 241 100 q158 -1 240 -100q83 -102 83 -259q-1 -158 -83 -259q-83 -100 -240 -100zM370 601q-104 -1 -154 -69q-49 -69 -49 -182q0 -175 107 -230q42 -21 96 -21q141 0 186 132q17 52 17 119q0 175 -107 230q-42 21 -96 21z" glyph-name="Otilde" horiz-adv-x="740" unicode="Õ"/>
<glyph d="M283 916q51 0 63 -44q2 -11 2 -21q0 -53 -47 -63q-9 -2 -18 -2q-54 0 -63 48q-2 8 -2 17q0 53 47 63q9 2 18 2zM470 786q-63 4 -65 65q0 58 54 64q6 1 11 1q51 0 63 -44q2 -11 2 -21q0 -53 -47 -63q-9 -2 -18 -2zM370 -9q-159 1 -241 100q-82 101 -82 259q1 159 82 259 q83 100 241 100q158 -1 240 -100q83 -102 83 -259q-1 -158 -83 -259q-83 -100 -240 -100zM370 601q-104 -1 -154 -69q-49 -69 -49 -182q0 -175 107 -230q42 -21 96 -21q141 0 186 132q17 52 17 119q0 175 -107 230q-42 21 -96 21z" glyph-name="Odieresis" horiz-adv-x="740" unicode="Ö"/>
<glyph d="M221 247l-144 -142l-70 71l143 141l-143 141l70 71l144 -142l144 142l71 -71l-143 -141l143 -141l-71 -71z" glyph-name="multiply" horiz-adv-x="435" unicode="×"/>
<glyph d="M597 738h107v-10l-90 -123q79 -98 79 -255q-1 -158 -83 -259q-83 -100 -240 -100q-101 1 -173 43l-56 -76h-105v10l92 126q-81 97 -81 256q1 159 82 259q83 100 241 100q100 0 174 -44zM167 350q0 -96 33 -156l277 380q-44 27 -107 27q-104 -1 -154 -69q-49 -69 -49 -182 zM573 350q0 91 -32 155l-277 -379q44 -27 106 -27q141 0 186 132q17 52 17 119z" glyph-name="Oslash" horiz-adv-x="740" unicode="Ø"/>
<glyph d="M423 767h-90l-116 140v10h134l72 -140v-10zM356 -9q-127 1 -203 70q-76 71 -76 199v440h117v-438q0 -136 114 -160q23 -5 48 -5q138 0 159 122q4 20 4 43v438h118v-440q-1 -128 -77 -199q-77 -70 -204 -70z" glyph-name="Ugrave" horiz-adv-x="714" unicode="Ù"/>
<glyph d="M385 767h-90v10l72 140h134v-10zM356 -9q-127 1 -203 70q-76 71 -76 199v440h117v-438q0 -136 114 -160q23 -5 48 -5q138 0 159 122q4 20 4 43v438h118v-440q-1 -128 -77 -199q-77 -70 -204 -70z" glyph-name="Uacute" horiz-adv-x="714" unicode="Ú"/>
<glyph d="M290 769h-98v10l98 136h134l98 -136v-10h-98l-65 69h-4zM356 -9q-127 1 -203 70q-76 71 -76 199v440h117v-438q0 -136 114 -160q23 -5 48 -5q138 0 159 122q4 20 4 43v438h118v-440q-1 -128 -77 -199q-77 -70 -204 -70z" glyph-name="Ucircumflex" horiz-adv-x="714" unicode="Û"/>
<glyph d="M264 916q51 0 63 -44q2 -11 2 -21q0 -53 -47 -63q-9 -2 -18 -2q-54 0 -63 48q-2 8 -2 17q0 53 47 63q9 2 18 2zM451 786q-63 4 -65 65q0 58 54 64q6 1 11 1q51 0 63 -44q2 -11 2 -21q0 -53 -47 -63q-9 -2 -18 -2zM356 -9q-127 1 -203 70q-76 71 -76 199v440h117v-438 q0 -136 114 -160q23 -5 48 -5q138 0 159 122q4 20 4 43v438h118v-440q-1 -128 -77 -199q-77 -70 -204 -70z" glyph-name="Udieresis" horiz-adv-x="714" unicode="Ü"/>
<glyph d="M372 767h-90v10l72 140h134v-10zM395 0h-118v286l-256 404v10h135l179 -298h4l176 298h134v-10l-254 -403v-287z" glyph-name="Yacute" horiz-adv-x="670" unicode="Ý"/>
<glyph d="M205 0h-118v700h118v-96h166q107 0 168 -63q63 -63 63 -162q-1 -102 -63 -166q-63 -63 -168 -63h-166v-150zM205 500v-245h146q108 0 127 88q4 17 4 36q0 85 -73 112q-26 9 -58 9h-146z" glyph-name="Thorn" horiz-adv-x="621" unicode="Þ"/>
<glyph d="M429 -9q-129 0 -178 91q-21 40 -23 91h110q0 -75 72 -85q10 -1 19 -1q64 0 75 43q2 8 2 15q-2 41 -68 64l-64 22q-101 33 -122 90q-8 21 -8 47q0 73 65 111q12 7 24 12q88 33 89 80q0 55 -62 73q-24 7 -52 7q-106 0 -119 -98q-2 -13 -2 -26v-527h-114v533q0 96 63 156 q65 61 172 61q108 -1 166 -52q59 -52 59 -127q0 -82 -60 -119q-3 -1 -4 -2q-14 -8 -44 -20q-59 -25 -69 -43q-5 -9 -5 -17q3 -23 17 -33t50 -23h1l66 -21q107 -37 127 -107q5 -20 5 -42q-1 -69 -53 -111t-135 -42z" glyph-name="germandbls" horiz-adv-x="656" unicode="ß"/>
<glyph d="M343 583h-90l-116 140v10h134l72 -140v-10zM219 -9q-83 0 -132 45q-48 47 -48 116q0 107 104 144q46 16 107 16q62 0 120 -17v48q0 67 -64 84q-18 4 -38 4q-69 0 -91 -48q-5 -14 -6 -29h-108q0 94 81 141q53 30 126 30q99 0 156 -51q57 -52 57 -130v-344h-100l-8 61h-4 q-49 -70 -152 -70zM245 82q75 0 109 55q16 27 16 58v17q-53 18 -112 18q-95 0 -104 -62q-1 -7 -1 -12q0 -55 57 -70q16 -4 35 -4z" glyph-name="agrave" unicode="à"/>
<glyph d="M305 583h-90v10l72 140h134v-10zM219 -9q-83 0 -132 45q-48 47 -48 116q0 107 104 144q46 16 107 16q62 0 120 -17v48q0 67 -64 84q-18 4 -38 4q-69 0 -91 -48q-5 -14 -6 -29h-108q0 94 81 141q53 30 126 30q99 0 156 -51q57 -52 57 -130v-344h-100l-8 61h-4 q-49 -70 -152 -70zM245 82q75 0 109 55q16 27 16 58v17q-53 18 -112 18q-95 0 -104 -62q-1 -7 -1 -12q0 -55 57 -70q16 -4 35 -4z" glyph-name="aacute" unicode="á"/>
<glyph d="M210 585h-98v10l98 136h134l98 -136v-10h-98l-65 69h-4zM219 -9q-83 0 -132 45q-48 47 -48 116q0 107 104 144q46 16 107 16q62 0 120 -17v48q0 67 -64 84q-18 4 -38 4q-69 0 -91 -48q-5 -14 -6 -29h-108q0 94 81 141q53 30 126 30q99 0 156 -51q57 -52 57 -130v-344 h-100l-8 61h-4q-49 -70 -152 -70zM245 82q75 0 109 55q16 27 16 58v17q-53 18 -112 18q-95 0 -104 -62q-1 -7 -1 -12q0 -55 57 -70q16 -4 35 -4z" glyph-name="acircumflex" unicode="â"/>
<glyph d="M324 592q-32 1 -67 20l-14 9q-24 14 -39 14q-26 0 -32 -29q-1 -6 -1 -12h-73v15q0 81 61 104q19 7 41 7q33 -1 68 -20l15 -9q23 -13 38 -13q31 2 32 40h72v-15q0 -94 -75 -109q-13 -2 -26 -2zM219 -9q-83 0 -132 45q-48 47 -48 116q0 107 104 144q46 16 107 16 q62 0 120 -17v48q0 67 -64 84q-18 4 -38 4q-69 0 -91 -48q-5 -14 -6 -29h-108q0 94 81 141q53 30 126 30q99 0 156 -51q57 -52 57 -130v-344h-100l-8 61h-4q-49 -70 -152 -70zM245 82q75 0 109 55q16 27 16 58v17q-53 18 -112 18q-95 0 -104 -62q-1 -7 -1 -12q0 -55 57 -70 q16 -4 35 -4z" glyph-name="atilde" unicode="ã"/>
<glyph d="M184 732q51 0 63 -44q2 -11 2 -21q0 -53 -47 -63q-9 -2 -18 -2q-54 0 -63 48q-2 8 -2 17q0 53 47 63q9 2 18 2zM371 602q-63 4 -65 65q0 58 54 64q6 1 11 1q51 0 63 -44q2 -11 2 -21q0 -53 -47 -63q-9 -2 -18 -2zM219 -9q-83 0 -132 45q-48 47 -48 116q0 107 104 144 q46 16 107 16q62 0 120 -17v48q0 67 -64 84q-18 4 -38 4q-69 0 -91 -48q-5 -14 -6 -29h-108q0 94 81 141q53 30 126 30q99 0 156 -51q57 -52 57 -130v-344h-100l-8 61h-4q-49 -70 -152 -70zM245 82q75 0 109 55q16 27 16 58v17q-53 18 -112 18q-95 0 -104 -62q-1 -7 -1 -12 q0 -55 57 -70q16 -4 35 -4z" glyph-name="adieresis" unicode="ä"/>
<glyph d="M273 570q-67 0 -98 53q-15 26 -15 58q0 65 53 96q27 16 60 16q72 0 102 -56q13 -26 13 -56q0 -67 -55 -97q-27 -14 -60 -14zM272 636q36 -3 45 30q9 32 -13 51q-14 11 -32 10q-33 3 -42 -31q-9 -32 12 -51q13 -10 30 -9zM219 -9q-83 0 -132 45q-48 47 -48 116 q0 107 104 144q46 16 107 16q62 0 120 -17v48q0 67 -64 84q-18 4 -38 4q-69 0 -91 -48q-5 -14 -6 -29h-108q0 94 81 141q53 30 126 30q99 0 156 -51q57 -52 57 -130v-344h-100l-8 61h-4q-49 -70 -152 -70zM245 82q75 0 109 55q16 27 16 58v17q-53 18 -112 18q-95 0 -104 -62 q-1 -7 -1 -12q0 -55 57 -70q16 -4 35 -4z" glyph-name="aring" unicode="å"/>
<glyph d="M222 -9q-107 0 -157 72q-26 39 -26 89q0 107 104 144q46 16 107 16q62 0 120 -17v48q0 67 -64 84q-18 4 -38 4q-69 0 -91 -48q-5 -14 -6 -29h-108q0 94 81 141q53 30 126 30q111 0 168 -69h4q58 69 165 69q109 -1 171 -71q62 -72 62 -180v-48h-357q0 -105 78 -132 q22 -7 48 -7q92 1 112 70h112q-11 -72 -73 -119q-63 -47 -151 -47q-129 1 -189 97h-4q-58 -97 -194 -97zM484 307h239q-1 88 -68 113q-22 8 -48 8q-91 0 -116 -79q-6 -20 -7 -42zM245 82q75 0 109 55q16 27 16 58v17q-53 18 -112 18q-95 0 -104 -62q-1 -7 -1 -12 q0 -55 57 -70q16 -4 35 -4z" glyph-name="ae" horiz-adv-x="879" unicode="æ"/>
<glyph d="M393 187h114q-9 -130 -113 -176q-37 -15 -82 -19l-22 -34q69 -3 90 -53q7 -16 7 -33q0 -62 -66 -85q-29 -9 -64 -9q-80 0 -109 51q-12 20 -12 44h73q0 -24 32 -31q8 -1 15 -1q43 4 47 32q-4 29 -44 31h-32l-25 31l31 60q-126 21 -173 139q-21 55 -21 124q0 162 104 230 q58 37 139 37q143 0 198 -103q22 -42 26 -94h-114q-6 70 -69 90q-19 6 -41 6q-105 0 -123 -117q-4 -23 -4 -49q0 -145 98 -164q14 -3 29 -3q82 0 105 69q4 13 6 27z" glyph-name="ccedilla" unicode="ç"/>
<glyph d="M350 583h-90l-116 140v10h134l72 -140v-10zM283 -9q-115 1 -179 75q-65 76 -65 192q1 117 62 192q63 75 180 75q109 -1 171 -71q62 -72 62 -180v-48h-357q0 -99 72 -129q24 -10 54 -10q93 1 113 70h111q-11 -72 -73 -119q-63 -47 -151 -47zM158 307h239q-1 88 -68 113 q-22 8 -48 8q-91 0 -116 -79q-6 -20 -7 -42z" glyph-name="egrave" horiz-adv-x="554" unicode="è"/>
<glyph d="M312 583h-90v10l72 140h134v-10zM283 -9q-115 1 -179 75q-65 76 -65 192q1 117 62 192q63 75 180 75q109 -1 171 -71q62 -72 62 -180v-48h-357q0 -99 72 -129q24 -10 54 -10q93 1 113 70h111q-11 -72 -73 -119q-63 -47 -151 -47zM158 307h239q-1 88 -68 113q-22 8 -48 8 q-91 0 -116 -79q-6 -20 -7 -42z" glyph-name="eacute" horiz-adv-x="554" unicode="é"/>
<glyph d="M217 585h-98v10l98 136h134l98 -136v-10h-98l-65 69h-4zM283 -9q-115 1 -179 75q-65 76 -65 192q1 117 62 192q63 75 180 75q109 -1 171 -71q62 -72 62 -180v-48h-357q0 -99 72 -129q24 -10 54 -10q93 1 113 70h111q-11 -72 -73 -119q-63 -47 -151 -47zM158 307h239 q-1 88 -68 113q-22 8 -48 8q-91 0 -116 -79q-6 -20 -7 -42z" glyph-name="ecircumflex" horiz-adv-x="554" unicode="ê"/>
<glyph d="M191 732q51 0 63 -44q2 -11 2 -21q0 -53 -47 -63q-9 -2 -18 -2q-54 0 -63 48q-2 8 -2 17q0 53 47 63q9 2 18 2zM378 602q-63 4 -65 65q0 58 54 64q6 1 11 1q51 0 63 -44q2 -11 2 -21q0 -53 -47 -63q-9 -2 -18 -2zM283 -9q-115 1 -179 75q-65 76 -65 192q1 117 62 192 q63 75 180 75q109 -1 171 -71q62 -72 62 -180v-48h-357q0 -99 72 -129q24 -10 54 -10q93 1 113 70h111q-11 -72 -73 -119q-63 -47 -151 -47zM158 307h239q-1 88 -68 113q-22 8 -48 8q-91 0 -116 -79q-6 -20 -7 -42z" glyph-name="edieresis" horiz-adv-x="554" unicode="ë"/>
<glyph d="M199 583h-90l-116 140v10h134l72 -140v-10zM187 0h-114v516h114v-516z" glyph-name="igrave" horiz-adv-x="250" unicode="ì"/>
<glyph d="M161 583h-90v10l72 140h134v-10zM187 0h-114v516h114v-516z" glyph-name="iacute" horiz-adv-x="250" unicode="í"/>
<glyph d="M66 585h-98v10l98 136h134l98 -136v-10h-98l-65 69h-4zM187 0h-114v516h114v-516z" glyph-name="icircumflex" horiz-adv-x="250" unicode="î"/>
<glyph d="M40 732q51 0 63 -44q2 -11 2 -21q0 -53 -47 -63q-9 -2 -18 -2q-54 0 -63 48q-2 8 -2 17q0 53 47 63q9 2 18 2zM227 602q-63 4 -65 65q0 58 54 64q6 1 11 1q51 0 63 -44q2 -11 2 -21q0 -53 -47 -63q-9 -2 -18 -2zM187 0h-114v516h114v-516z" glyph-name="idieresis" horiz-adv-x="250" unicode="ï"/>
<glyph d="M527 260v-1v-1q-1 -120 -63 -193q-64 -74 -181 -74q-119 1 -182 74q-62 75 -62 193t63 192q65 75 181 75q22 0 41 -3q-30 38 -68 73l-114 -56l-33 63l88 44q-57 45 -126 84v10h124q46 -27 82 -54l104 52l33 -65l-76 -37q173 -159 188 -348q1 -7 1 -28zM283 92 q127 2 128 166q-1 78 -32 122q-33 44 -96 44q-64 -1 -96 -44q-32 -45 -32 -122q0 -138 91 -162q18 -4 37 -4z" glyph-name="eth" horiz-adv-x="566" unicode="ð"/>
<glyph d="M375 592q-32 1 -67 20l-14 9q-24 14 -39 14q-26 0 -32 -29q-1 -6 -1 -12h-73v15q0 81 61 104q19 7 41 7q33 -1 68 -20l15 -9q23 -13 38 -13q31 2 32 40h72v-15q0 -94 -75 -109q-13 -2 -26 -2zM187 0h-114v516h101l9 -67h4q49 76 151 76q118 0 164 -88q22 -43 22 -100 v-337h-114v309q-2 112 -105 113q-78 0 -106 -70q-12 -30 -12 -67v-285z" glyph-name="ntilde" horiz-adv-x="587" unicode="ñ"/>
<glyph d="M352 583h-90l-116 140v10h134l72 -140v-10zM283 -9q-119 1 -182 74q-62 75 -62 193t63 192q65 75 181 75q117 0 180 -75q64 -74 64 -192q-1 -120 -63 -193q-64 -74 -181 -74zM283 92q127 2 128 166q-1 78 -32 122q-33 44 -96 44q-64 -1 -96 -44q-32 -45 -32 -122 q0 -138 91 -162q18 -4 37 -4z" glyph-name="ograve" horiz-adv-x="566" unicode="ò"/>
<glyph d="M314 583h-90v10l72 140h134v-10zM283 -9q-119 1 -182 74q-62 75 -62 193t63 192q65 75 181 75q117 0 180 -75q64 -74 64 -192q-1 -120 -63 -193q-64 -74 -181 -74zM283 92q127 2 128 166q-1 78 -32 122q-33 44 -96 44q-64 -1 -96 -44q-32 -45 -32 -122q0 -138 91 -162 q18 -4 37 -4z" glyph-name="oacute" horiz-adv-x="566" unicode="ó"/>
<glyph d="M219 585h-98v10l98 136h134l98 -136v-10h-98l-65 69h-4zM283 -9q-119 1 -182 74q-62 75 -62 193t63 192q65 75 181 75q117 0 180 -75q64 -74 64 -192q-1 -120 -63 -193q-64 -74 -181 -74zM283 92q127 2 128 166q-1 78 -32 122q-33 44 -96 44q-64 -1 -96 -44 q-32 -45 -32 -122q0 -138 91 -162q18 -4 37 -4z" glyph-name="ocircumflex" horiz-adv-x="566" unicode="ô"/>
<glyph d="M333 592q-32 1 -67 20l-14 9q-24 14 -39 14q-26 0 -32 -29q-1 -6 -1 -12h-73v15q0 81 61 104q19 7 41 7q33 -1 68 -20l15 -9q23 -13 38 -13q31 2 32 40h72v-15q0 -94 -75 -109q-13 -2 -26 -2zM283 -9q-119 1 -182 74q-62 75 -62 193t63 192q65 75 181 75q117 0 180 -75 q64 -74 64 -192q-1 -120 -63 -193q-64 -74 -181 -74zM283 92q127 2 128 166q-1 78 -32 122q-33 44 -96 44q-64 -1 -96 -44q-32 -45 -32 -122q0 -138 91 -162q18 -4 37 -4z" glyph-name="otilde" horiz-adv-x="566" unicode="õ"/>
<glyph d="M193 732q51 0 63 -44q2 -11 2 -21q0 -53 -47 -63q-9 -2 -18 -2q-54 0 -63 48q-2 8 -2 17q0 53 47 63q9 2 18 2zM380 602q-63 4 -65 65q0 58 54 64q6 1 11 1q51 0 63 -44q2 -11 2 -21q0 -53 -47 -63q-9 -2 -18 -2zM283 -9q-119 1 -182 74q-62 75 -62 193t63 192 q65 75 181 75q117 0 180 -75q64 -74 64 -192q-1 -120 -63 -193q-64 -74 -181 -74zM283 92q127 2 128 166q-1 78 -32 122q-33 44 -96 44q-64 -1 -96 -44q-32 -45 -32 -122q0 -138 91 -162q18 -4 37 -4z" glyph-name="odieresis" horiz-adv-x="566" unicode="ö"/>
<glyph d="M291 438q-17 -18 -49 -18q-32 1 -50 18q-25 27 -15 69q5 19 15 30q19 18 50 18q32 -1 49 -18q25 -25 16 -68q-5 -19 -16 -31zM480 265h-475v96h475v-96zM175 139q0 53 46 64q10 3 21 3q53 0 65 -47q2 -10 2 -20q0 -55 -48 -66q-9 -2 -19 -2q-55 0 -65 49q-2 10 -2 19z " glyph-name="divide" horiz-adv-x="485" unicode="÷"/>
<glyph d="M525 548l-63 -96q65 -75 65 -194q-1 -120 -63 -193q-64 -74 -181 -74q-63 0 -109 21l-38 -59h-95v10l64 98q-66 73 -66 197q0 118 63 192q65 75 181 75q61 0 109 -22l36 55h97v-10zM155 258q0 -59 16 -95l164 252q-23 9 -52 9q-105 0 -124 -117q-4 -23 -4 -49zM283 92 q127 2 128 166q0 55 -15 92l-163 -249q22 -9 50 -9z" glyph-name="oslash" horiz-adv-x="566" unicode="ø"/>
<glyph d="M361 593v-10h-90l-116 140v10h134zM397 214v302h114v-320q0 -115 -88 -170q-56 -34 -134 -34q-106 1 -164 57q-58 59 -58 147v320h114v-302q0 -117 108 -117t108 117z" glyph-name="ugrave" horiz-adv-x="578" unicode="ù"/>
<glyph d="M439 733v-10l-116 -140h-90v10l72 140h134zM397 214v302h114v-320q0 -115 -88 -170q-56 -34 -134 -34q-106 1 -164 57q-58 59 -58 147v320h114v-302q0 -117 108 -117t108 117z" glyph-name="uacute" horiz-adv-x="578" unicode="ú"/>
<glyph d="M297 654h-4l-65 -69h-98v10l98 136h134l98 -136v-10h-98zM397 214v302h114v-320q0 -115 -88 -170q-56 -34 -134 -34q-106 1 -164 57q-58 59 -58 147v320h114v-302q0 -117 108 -117t108 117z" glyph-name="ucircumflex" horiz-adv-x="578" unicode="û"/>
<glyph d="M202 732q51 0 63 -44q2 -11 2 -21q0 -53 -47 -63q-9 -2 -18 -2q-54 0 -63 48q-2 8 -2 17q0 53 47 63q9 2 18 2zM389 602q-63 4 -65 65q0 58 54 64q6 1 11 1q51 0 63 -44q2 -11 2 -21q0 -53 -47 -63q-9 -2 -18 -2zM397 214v302h114v-320q0 -115 -88 -170q-56 -34 -134 -34 q-106 1 -164 57q-58 59 -58 147v320h114v-302q0 -117 108 -117t108 117z" glyph-name="udieresis" horiz-adv-x="578" unicode="ü"/>
<glyph d="M310 583h-90v10l72 140h134v-10zM254 -229h-120v10l82 221l-12 1l-188 503v10h119l134 -388h4l134 388h121v-10z" glyph-name="yacute" horiz-adv-x="544" unicode="ý"/>
<glyph d="M338 525q99 -1 157 -73t58 -194q-1 -120 -57 -193q-57 -74 -158 -74q-100 1 -147 71h-4v-291h-114v969h114v-286h4q48 71 147 71zM310 92q100 0 123 108q5 27 5 58q0 133 -86 160q-20 6 -42 6q-89 0 -117 -91q-10 -34 -10 -75q0 -117 71 -153q25 -13 56 -13z" glyph-name="thorn" horiz-adv-x="600" unicode="þ"/>
</font>
</defs>
</svg>
