<?xml version="1.0" encoding="UTF-8"?>
<!DOCTYPE svg  PUBLIC '-//W3C//DTD SVG 1.1//EN'  'http://www.w3.org/Graphics/SVG/1.1/DTD/svg11.dtd'>
<svg version="1.1" xmlns="http://www.w3.org/2000/svg">
<defs>
<font id="BasierCircle-Bold" horiz-adv-x="702">
<font-face font-family="Basier Circle" font-weight="700" ascent="800" bbox="-50 -245 969 972" cap-height="700" descent="-200" panose-1="0 0 8 0 0 0 0 0 0 0" underline-position="-250" underline-thickness="50" unicode-range="U+0020-00FE" units-per-em="1000" x-height="523"/>
<missing-glyph/>
<glyph glyph-name="space" horiz-adv-x="280" unicode=" "/>
<glyph d="M182 222h-117l-21 382v96h164v-96zM125 -9q-80 0 -89 74q-1 8 -1 16q0 78 71 88q10 1 19 1q70 0 86 -59q4 -14 4 -30q0 -71 -60 -86q-15 -4 -30 -4z" glyph-name="exclam" horiz-adv-x="250" unicode="!"/>
<glyph d="M170 420h-104l-26 157v123h156v-123zM370 420h-104l-26 157v123h156v-123z" glyph-name="quotedbl" horiz-adv-x="436" unicode='"'/>
<glyph d="M655 533v-134h-111l-18 -103h79v-134h-101l-28 -162h-142l28 162h-88l-28 -162h-142l28 162h-82v134h104l18 103h-72v134h95l28 167h142l-28 -167h88l28 167h142l-28 -167h88zM296 296h88l18 103h-88z" glyph-name="numbersign" horiz-adv-x="705" unicode="#"/>
<glyph d="M607 206q0 -153 -154 -198q-40 -11 -88 -15v-83h-98v83q-170 18 -225 148q-19 45 -22 99h159q9 -84 88 -105v161l-8 2q-162 34 -201 128q-15 36 -15 82q1 81 61 134q62 53 163 64v84h98v-84q102 -14 165 -75t65 -150h-159q-6 63 -71 81v-136l13 -3q167 -36 210 -126 q19 -40 19 -91zM204 508q2 -44 63 -61v118q-63 -13 -63 -57zM365 275v-142q81 13 81 69q0 51 -69 70q-6 2 -12 3z" glyph-name="dollar" horiz-adv-x="632" unicode="$"/>
<glyph d="M329 398q-46 -50 -122 -50q-77 1 -122 50q-45 50 -45 132t45 132q46 50 122 50q77 -1 122 -50q45 -50 45 -132t-45 -132zM246 0h-129v10l474 690h127v-10zM144 530q0 -84 63 -84t63 84t-63 84t-63 -84zM759 41q-46 -50 -122 -50q-77 1 -122 50t-45 132t45 132 q46 50 122 50q77 -1 122 -50t45 -132t-45 -132zM574 173q0 -84 63 -84t63 84t-63 84t-63 -84z" glyph-name="percent" horiz-adv-x="844" unicode="%"/>
<glyph d="M545 398h156v-10q-58 -145 -131 -241l124 -137v-10h-181l-43 48q-81 -57 -183 -57q-99 1 -171 53q-71 55 -71 152q0 96 99 167q14 10 29 19q-68 80 -68 146q1 74 56 127q56 54 145 54h2q96 -1 151 -51q56 -52 56 -125q0 -76 -85 -143q-22 -17 -50 -35l94 -103 q41 65 71 146zM307 582h-2q-37 -1 -49 -35q-4 -9 -4 -19q1 -36 39 -74l4 -4q61 37 66 67q1 5 1 9q0 45 -39 54q-8 2 -16 2zM287 129q48 0 90 24l-117 131q-49 -35 -55 -68q-2 -10 -2 -20q0 -37 39 -57q21 -10 45 -10z" glyph-name="ampersand" horiz-adv-x="731" unicode="&amp;"/>
<glyph d="M170 420h-104l-26 157v123h156v-123z" glyph-name="quotesingle" horiz-adv-x="236" unicode="'"/>
<glyph d="M205 770h120v-10q-65 -87 -111 -206q-45 -122 -45 -258t45 -258q46 -120 111 -206v-10h-120q-76 82 -129 208q-51 125 -51 266q0 146 51 267t129 207z" glyph-name="parenleft" horiz-adv-x="365" unicode="("/>
<glyph d="M40 770h120q78 -86 129 -207t51 -267q0 -143 -52 -266q-52 -126 -128 -208h-120v10q66 89 110 206q46 121 46 258q0 138 -46 258q-44 119 -110 206v10z" glyph-name="parenright" horiz-adv-x="365" unicode=")"/>
<glyph d="M306 342h-116l15 124l-4 2l-95 -74l-53 103l118 31v4l-118 33l53 103l95 -70l4 3l-15 119h116l-15 -119l4 -3l95 70l53 -103l-118 -33v-4l118 -31l-53 -103l-95 74l-4 -2z" glyph-name="asterisk" horiz-adv-x="486" unicode="*"/>
<glyph d="M320 60h-140v187h-175v132h175v187h140v-187h171v-132h-171v-187z" glyph-name="plus" horiz-adv-x="496" unicode="+"/>
<glyph d="M130 -144h-118v10l31 247h169v-10z" glyph-name="comma" horiz-adv-x="238" unicode=","/>
<glyph d="M386 224h-306v138h306v-138z" glyph-name="hyphen" horiz-adv-x="466" unicode="-"/>
<glyph d="M125 -9q-80 0 -89 74q-1 8 -1 16q0 78 71 88q10 1 19 1q70 0 86 -59q4 -14 4 -30q0 -71 -60 -86q-15 -4 -30 -4z" glyph-name="period" horiz-adv-x="250" unicode="."/>
<glyph d="M161 -133h-146v10l281 860h147v-10z" glyph-name="slash" horiz-adv-x="458" unicode="/"/>
<glyph d="M40 352q1 164 68 262q69 98 206 98q138 -1 206 -98q68 -99 68 -262q-1 -165 -68 -263q-69 -98 -206 -98q-138 1 -206 98q-68 99 -68 263zM431 352q0 175 -65 212q-22 12 -52 12q-82 0 -105 -97q-12 -49 -12 -127q0 -170 59 -210q24 -15 58 -15q80 0 104 89q13 51 13 136z " glyph-name="zero" horiz-adv-x="628" unicode="0"/>
<glyph d="M365 0h-155v545h-4l-161 -120h-10v147l174 128h156v-700z" glyph-name="one" horiz-adv-x="425" unicode="1"/>
<glyph d="M534 0h-497v126l229 219q54 52 78 86q22 33 22 69q0 52 -49 70q-17 6 -36 6q-73 0 -91 -64q-5 -18 -5 -38h-150q0 139 102 201q60 37 144 37q107 -1 174 -58q68 -58 68 -149q0 -86 -81 -174q-17 -19 -38 -39l-161 -150v-4h291v-138z" glyph-name="two" horiz-adv-x="569" unicode="2"/>
<glyph d="M301 -9q-120 1 -196 58q-75 59 -75 170h154q0 -69 68 -87q22 -6 48 -6q90 0 103 66q2 9 2 19q0 78 -97 85q-9 1 -18 1h-61v135h59q94 2 95 75q0 46 -48 63q-20 7 -43 7q-82 0 -94 -71q-2 -11 -2 -22h-155q1 105 69 166q72 62 185 62q104 -1 175 -53q70 -54 71 -136 q0 -103 -85 -144l-10 -4v-4q67 -21 100 -85q17 -35 17 -73q0 -95 -66 -159q-65 -63 -196 -63z" glyph-name="three" horiz-adv-x="603" unicode="3"/>
<glyph d="M485 0h-155v128h-309v148l275 424h189v-436h84v-136h-84v-128zM173 268v-4h157v245h-4z" glyph-name="four" horiz-adv-x="588" unicode="4"/>
<glyph d="M296 -9q-112 0 -186 63q-73 65 -73 154h155q10 -65 75 -78q14 -3 29 -3q72 0 97 61q10 24 10 50q0 63 -50 91q-25 13 -57 13q-63 -1 -100 -49h-149l27 407h432v-137h-306l-11 -133h4q47 37 127 37q104 -1 172 -65q67 -65 67 -164q-1 -107 -71 -178q-70 -69 -192 -69z" glyph-name="five" horiz-adv-x="594" unicode="5"/>
<glyph d="M310 -9q-187 0 -246 177q-24 73 -24 171q1 169 72 271q73 102 209 102q108 -1 172 -58q64 -59 75 -143h-147q-21 63 -100 64q-112 0 -132 -125q-4 -25 -4 -54h4q57 61 148 61q107 0 171 -69q64 -68 64 -156q-1 -103 -71 -172q-71 -69 -191 -69zM310 127q65 0 96 48 q15 25 15 55q0 67 -57 92q-25 10 -54 10q-68 0 -97 -51q-13 -23 -13 -51q0 -69 59 -93q23 -10 51 -10z" glyph-name="six" horiz-adv-x="612" unicode="6"/>
<glyph d="M249 0h-166v10q78 271 285 547v4h-353v139h511v-144q-205 -282 -277 -556z" glyph-name="seven" horiz-adv-x="541" unicode="7"/>
<glyph d="M458 373v-4q108 -47 109 -165q-1 -101 -73 -156q-74 -55 -193 -57q-120 2 -193 57q-73 56 -73 156q1 119 109 165v4q-76 40 -87 130q-1 12 -1 24q1 84 68 134q69 51 177 51q109 -1 176 -51q68 -50 69 -134q0 -96 -73 -145q-8 -5 -15 -9zM212 507q0 -57 61 -69 q14 -3 28 -3q75 0 87 54q2 9 2 18q4 46 -48 64q-50 17 -94 -5q-38 -21 -36 -59zM301 125q86 1 105 61q4 13 4 28q0 60 -63 80q-21 6 -46 7q-81 -1 -103 -55q-6 -15 -6 -32q0 -66 69 -84q19 -5 40 -5z" glyph-name="eight" horiz-adv-x="602" unicode="8"/>
<glyph d="M291 -9q-108 1 -172 58q-64 59 -75 143h147q21 -63 100 -64q112 0 132 125q4 25 4 54h-4q-57 -61 -148 -61q-106 1 -171 68q-64 69 -64 157q1 103 71 172q71 69 191 69q187 0 246 -177q24 -73 24 -171q-1 -169 -72 -271q-73 -102 -209 -102zM302 371q68 0 97 51 q13 23 13 51q0 69 -59 93q-23 10 -51 10q-65 0 -96 -48q-15 -25 -15 -55q0 -67 57 -92q25 -10 54 -10z" glyph-name="nine" horiz-adv-x="612" unicode="9"/>
<glyph d="M125 305q-80 0 -89 74q-1 8 -1 16q0 78 71 88q10 1 19 1q70 0 86 -59q4 -14 4 -30q0 -71 -60 -86q-15 -4 -30 -4zM125 -9q-80 0 -89 74q-1 8 -1 16q0 78 71 88q10 1 19 1q70 0 86 -59q4 -14 4 -30q0 -71 -60 -86q-15 -4 -30 -4z" glyph-name="colon" horiz-adv-x="238" unicode=":"/>
<glyph d="M125 305q-80 0 -89 74q-1 8 -1 16q0 78 71 88q10 1 19 1q70 0 86 -59q4 -14 4 -30q0 -71 -60 -86q-15 -4 -30 -4zM130 -144h-118v10l31 247h169v-10z" glyph-name="semicolon" horiz-adv-x="238" unicode=";"/>
<glyph d="M490 129v-141l-460 244v110l460 244v-141l-308 -156v-4z" glyph-name="less" horiz-adv-x="520" unicode="&lt;"/>
<glyph d="M491 347h-486v132h486v-132zM491 127h-486v132h486v-132z" glyph-name="equal" horiz-adv-x="496" unicode="="/>
<glyph d="M490 232l-460 -244v141l308 156v4l-308 156v141l460 -244v-110z" glyph-name="greater" horiz-adv-x="520" unicode="&gt;"/>
<glyph d="M331 221h-150v16q0 75 42 122q18 20 48 44l32 25q42 33 49 54q3 11 3 24q0 48 -47 63q-16 5 -34 5q-87 -2 -88 -87h-156q0 134 103 190q58 32 141 32q110 -1 174 -55q65 -57 65 -139q-1 -94 -76 -152l-42 -33q-38 -29 -51 -46q-13 -18 -13 -47v-16zM261 -9q-80 0 -89 74 q-1 8 -1 16q0 78 71 88q10 1 19 1q70 0 86 -59q4 -14 4 -30q0 -71 -60 -86q-15 -4 -30 -4z" glyph-name="question" horiz-adv-x="543" unicode="?"/>
<glyph d="M462 -100q-189 1 -308 103q-119 105 -119 301q1 178 127 291q128 114 309 114q166 -1 272 -96q107 -97 107 -255q0 -264 -195 -264q-70 0 -100 43q-7 10 -10 19h-4q-48 -59 -129 -59q-75 1 -121 55q-45 56 -45 142q1 89 46 145q47 57 122 57q59 0 97 -40q9 -10 14 -20h4 l7 49h98l-9 -242q0 -53 47 -54q79 2 79 169q-1 113 -76 183q-76 71 -207 71q-144 -1 -236 -92q-91 -92 -91 -222q1 -145 87 -223q90 -77 235 -77q122 0 205 35v-96q-82 -37 -206 -37zM434 197q88 2 89 107q0 71 -55 90q-14 4 -28 4q-65 0 -80 -68q-4 -17 -4 -37 q0 -85 64 -95q7 -1 14 -1z" glyph-name="at" horiz-adv-x="885" unicode="@"/>
<glyph d="M250 700h201l241 -690v-10h-174l-41 133h-260l-41 -133h-166v10zM345 543l-85 -272h174l-85 272h-4z" glyph-name="A" unicode="A"/>
<glyph d="M418 0h-348v700h335q127 0 182 -81q28 -44 28 -101q-1 -93 -68 -143v-4q93 -46 94 -169q0 -128 -103 -177q-51 -25 -120 -25zM226 562v-132h156q73 2 74 66q-2 65 -74 66h-156zM226 294v-155h166q88 2 89 78q0 57 -54 72q-16 5 -35 5h-166z" glyph-name="B" horiz-adv-x="666" unicode="B"/>
<glyph d="M369 -9q-162 1 -251 101q-88 101 -88 257q1 159 88 259q90 101 251 101q131 -1 216 -79q86 -81 94 -194h-160q-8 82 -76 115q-33 16 -74 16q-137 0 -170 -134q-9 -38 -9 -84q0 -177 123 -210q26 -7 56 -7q104 0 140 87q7 18 11 38h159q-11 -113 -96 -189 q-87 -77 -214 -77z" glyph-name="C" horiz-adv-x="709" unicode="C"/>
<glyph d="M312 0h-242v700h242q159 -1 260 -97q102 -98 102 -253q-1 -149 -101 -250q-101 -100 -261 -100zM217 560v-421h86q196 0 210 184q1 13 1 27q0 184 -164 207q-23 3 -47 3h-86z" glyph-name="D" horiz-adv-x="704" unicode="D"/>
<glyph d="M570 0h-500v700h500v-140h-343v-129h312v-140h-312v-152h343v-139z" glyph-name="E" horiz-adv-x="610" unicode="E"/>
<glyph d="M227 0h-157v700h500v-140h-343v-149h312v-140h-312v-271z" glyph-name="F" horiz-adv-x="610" unicode="F"/>
<glyph d="M369 -9q-162 1 -251 101q-88 101 -88 257q1 159 88 259q90 101 251 101q131 -1 214 -73q84 -72 96 -180h-160q-16 88 -105 107q-21 4 -45 4q-137 0 -170 -134q-9 -38 -9 -84q0 -177 123 -210q26 -7 56 -7q123 1 151 107h-131v139h295v-79q-1 -139 -88 -224 q-89 -84 -227 -84z" glyph-name="G" horiz-adv-x="714" unicode="G"/>
<glyph d="M508 432v268h157v-700h-157v291h-281v-291h-157v700h157v-268h281z" glyph-name="H" horiz-adv-x="735" unicode="H"/>
<glyph d="M228 0h-158v700h158v-700z" glyph-name="I" horiz-adv-x="298" unicode="I"/>
<glyph d="M245 -9q-112 1 -174 62q-61 63 -61 157h153q3 -75 84 -76q76 0 82 74v11v481h158v-481q-1 -100 -64 -164t-178 -64z" glyph-name="J" horiz-adv-x="547" unicode="J"/>
<glyph d="M654 690l-301 -326l313 -354v-10h-186l-253 290v-290h-157v700h157v-265l243 265h184v-10z" glyph-name="K" horiz-adv-x="676" unicode="K"/>
<glyph d="M545 0h-475v700h157v-560h318v-140z" glyph-name="L" horiz-adv-x="555" unicode="L"/>
<glyph d="M222 0h-152v700h172l197 -321h4l197 321h170v-700h-152v452h-4l-209 -336h-10l-209 339h-4v-455z" glyph-name="M" horiz-adv-x="880" unicode="M"/>
<glyph d="M225 0h-155v700h185l258 -457h4v457h156v-700h-186l-258 454h-4v-454z" glyph-name="N" horiz-adv-x="743" unicode="N"/>
<glyph d="M30 350q1 158 88 258q90 101 252 101q162 -1 251 -101q89 -102 89 -258q-1 -157 -89 -258q-90 -101 -251 -101q-163 1 -252 101q-88 101 -88 258zM370 567q-142 0 -173 -141q-7 -35 -7 -76q0 -172 119 -209q28 -8 61 -8q138 0 171 133q9 38 9 84q0 172 -119 209 q-28 8 -61 8z" glyph-name="O" horiz-adv-x="740" unicode="O"/>
<glyph d="M227 0h-157v700h318q105 0 168 -66q63 -64 63 -165q-1 -102 -64 -169q-64 -66 -167 -66h-161v-234zM227 561v-187h130q101 2 102 95q0 76 -74 90q-14 2 -28 2h-130z" glyph-name="P" horiz-adv-x="649" unicode="P"/>
<glyph d="M710 350q-1 -176 -105 -275l94 -138v-10h-156l-55 81q-56 -17 -118 -17q-163 1 -252 101q-88 101 -88 258q1 158 88 258q90 101 252 101q162 -1 251 -101q89 -102 89 -258zM370 133q7 0 32 2l-89 131v10h155l48 -70q34 54 34 144q0 172 -119 209q-28 8 -61 8 q-142 0 -173 -141q-7 -35 -7 -76q0 -172 119 -209q28 -8 61 -8z" glyph-name="Q" horiz-adv-x="740" unicode="Q"/>
<glyph d="M491 266l169 -256v-10h-184l-151 247h-98v-247h-157v700h320q108 -1 173 -65q66 -65 66 -158q0 -126 -97 -190q-19 -12 -41 -21zM382 560h-155v-173h155q66 0 82 59q4 15 4 30q0 59 -49 78q-17 6 -37 6z" glyph-name="R" horiz-adv-x="670" unicode="R"/>
<glyph d="M315 -9q-192 0 -262 127q-29 53 -33 122h159q9 -94 105 -108q15 -2 31 -2q130 1 131 72q0 48 -60 67q-12 4 -25 7l-102 22q-162 34 -201 128q-15 36 -15 82q1 90 75 145q77 56 198 56q122 -1 199 -64q78 -65 80 -164h-159q-5 63 -72 82q-23 6 -50 6q-91 0 -107 -45 q-3 -8 -3 -16q0 -42 58 -60q10 -3 21 -5l95 -20q167 -36 210 -126q19 -40 19 -91q0 -162 -173 -203q-53 -12 -119 -12z" glyph-name="S" horiz-adv-x="632" unicode="S"/>
<glyph d="M375 0h-158v559h-202v141h562v-141h-202v-559z" glyph-name="T" horiz-adv-x="592" unicode="T"/>
<glyph d="M356 -9q-129 1 -213 74q-83 75 -83 212v423h157v-421q2 -147 139 -148q139 2 140 148v421h158v-423q-1 -139 -84 -212q-84 -74 -214 -74z" glyph-name="U" horiz-adv-x="714" unicode="U"/>
<glyph d="M449 0h-189l-250 690v10h179l162 -513h4l159 513h182v-10z" glyph-name="V" horiz-adv-x="706" unicode="V"/>
<glyph d="M373 0h-203l-160 690v10h169l93 -483h4l112 483h174l114 -483h4l92 483h167v-10l-160 -690h-203l-98 463h-4z" glyph-name="W" horiz-adv-x="949" unicode="W"/>
<glyph d="M209 0h-194v10l219 340v4l-210 336v10h190l142 -243h4l142 243h185v-10l-203 -337v-4l203 -339v-10h-193l-140 243h-4z" glyph-name="X" unicode="X"/>
<glyph d="M429 0h-158v278l-261 412v10h183l156 -264h4l152 264h183v-10l-259 -410v-280z" glyph-name="Y" horiz-adv-x="698" unicode="Y"/>
<glyph d="M567 0h-537v137l334 418v4h-325v141h522v-139l-333 -417v-4h339v-140z" glyph-name="Z" horiz-adv-x="597" unicode="Z"/>
<glyph d="M282 -178h-252v948h252v-120h-123v-708h123v-120z" glyph-name="bracketleft" horiz-adv-x="337" unicode="["/>
<glyph d="M443 -133h-146l-282 860v10h147l281 -860v-10z" glyph-name="backslash" horiz-adv-x="458" unicode="\"/>
<glyph d="M307 -178h-252v120h123v708h-123v120h252v-948z" glyph-name="bracketright" horiz-adv-x="337" unicode="]"/>
<glyph d="M176 310h-141v10l196 380h127l195 -380v-10h-141l-116 238h-4z" glyph-name="asciicircum" horiz-adv-x="588" unicode="^"/>
<glyph d="M521 -148h-491v121h491v-121z" glyph-name="underscore" horiz-adv-x="551" unicode="_"/>
<glyph d="M256 583h-110l-116 146v10h160l66 -146v-10z" glyph-name="grave" horiz-adv-x="286" unicode="`"/>
<glyph d="M208 -9q-114 0 -160 78q-23 38 -23 86q0 118 120 151q40 10 90 10q67 0 112 -15v43q-2 63 -80 64q-57 0 -72 -38q-4 -10 -4 -20h-144q0 104 90 152q56 30 135 30q105 -1 167 -53q62 -54 62 -135v-344h-138l-11 47h-4q-51 -56 -140 -56zM247 111q66 0 91 45q9 17 9 35v5 q-44 17 -94 17q-61 0 -74 -36q-2 -7 -2 -14q0 -41 47 -50q11 -2 23 -2z" glyph-name="a" horiz-adv-x="541" unicode="a"/>
<glyph d="M347 -9q-89 1 -139 59h-4l-16 -50h-138v740h154v-267h4q51 59 139 59q97 -1 154 -76q58 -75 58 -194q-1 -120 -58 -196q-58 -75 -154 -75zM403 262q-2 134 -103 135q-102 -2 -103 -135q0 -112 73 -132q14 -4 30 -4q82 0 99 91q4 22 4 45z" glyph-name="b" horiz-adv-x="584" unicode="b"/>
<glyph d="M288 -9q-122 1 -193 74q-70 75 -70 197q1 121 68 195q68 75 191 75q112 0 174 -60q62 -61 68 -155h-155q-6 57 -54 74q-16 6 -33 6q-102 0 -102 -135q1 -135 102 -136q57 0 79 50q6 14 8 30h155q-7 -96 -67 -155q-61 -60 -171 -60z" glyph-name="c" horiz-adv-x="551" unicode="c"/>
<glyph d="M237 -9q-97 1 -155 75q-57 77 -57 196q1 119 57 194q59 76 155 76q89 -1 139 -59h4v267h154v-740h-138l-16 50h-4q-51 -59 -139 -59zM387 262q-2 134 -103 135q-102 -2 -103 -135q0 -112 73 -132q14 -4 30 -4q82 0 99 91q4 22 4 45z" glyph-name="d" horiz-adv-x="574" unicode="d"/>
<glyph d="M284 -9q-120 1 -190 76q-69 77 -69 194q1 118 67 194q69 77 189 77q116 -1 183 -73t67 -182v-57h-349q1 -93 83 -103q10 -1 19 -1q71 1 91 52h149q-10 -75 -75 -126q-63 -51 -165 -51zM183 317h191q-4 72 -67 86q-13 3 -26 3q-80 0 -95 -69q-2 -10 -3 -20z" glyph-name="e" horiz-adv-x="556" unicode="e"/>
<glyph d="M265 0h-154v393h-91v130h91v27q1 93 62 146q62 54 157 54q35 0 64 -7v-130q-32 5 -50 5q-78 -2 -79 -68v-27h124v-130h-124v-393z" glyph-name="f" horiz-adv-x="429" unicode="f"/>
<glyph d="M278 -238q-106 1 -171 53q-65 54 -67 140h151q5 -41 52 -56q17 -5 35 -5q76 0 96 52q6 15 6 31v73h-4q-51 -59 -139 -59q-97 1 -155 75q-57 76 -57 195q0 120 57 195q59 76 155 76q89 -1 139 -59h4l16 50h138v-548q-1 -97 -72 -155q-72 -58 -184 -58zM387 261 q0 112 -73 132q-14 4 -30 4q-82 0 -99 -91q-4 -22 -4 -45q2 -134 103 -135q102 2 103 135z" glyph-name="g" horiz-adv-x="574" unicode="g"/>
<glyph d="M204 0h-154v740h154v-267h4q51 59 143 59q114 0 166 -81q28 -46 28 -107v-344h-154v296q-2 95 -88 96q-60 0 -87 -50q-12 -24 -12 -52v-290z" glyph-name="h" horiz-adv-x="585" unicode="h"/>
<glyph d="M128 576q-79 0 -91 68q-2 11 -2 22q0 74 68 87q12 2 25 2q75 0 90 -62q3 -13 3 -27q0 -70 -62 -86q-15 -4 -31 -4zM204 0h-154v523h154v-523z" glyph-name="i" horiz-adv-x="244" unicode="i"/>
<glyph d="M133 576q-79 0 -91 68q-2 11 -2 22q0 74 68 87q12 2 25 2q75 0 90 -62q3 -13 3 -27q0 -70 -62 -86q-15 -4 -31 -4zM20 -238q-32 0 -70 8v139q20 -3 38 -3q65 2 66 73v544h154v-583q0 -107 -84 -153q-46 -25 -104 -25z" glyph-name="j" horiz-adv-x="248" unicode="j"/>
<glyph d="M540 513l-212 -237l223 -266v-10h-186l-171 214v-214h-144v740h144v-407l166 190h180v-10z" glyph-name="k" horiz-adv-x="561" unicode="k"/>
<glyph d="M204 0h-154v740h154v-740z" glyph-name="l" horiz-adv-x="244" unicode="l"/>
<glyph d="M662 532q114 0 166 -81q28 -46 28 -107v-344h-154v296q-2 95 -82 96q-65 0 -82 -63q-5 -18 -5 -39v-290h-152v296q-2 95 -82 96q-63 0 -86 -54q-9 -22 -9 -48v-290h-154v523h138l12 -50h4q51 59 143 59q108 -1 156 -71h3q57 71 156 71z" glyph-name="m" horiz-adv-x="896" unicode="m"/>
<glyph d="M204 0h-154v523h138l12 -50h4q51 59 143 59q114 0 166 -81q28 -46 28 -107v-344h-154v296q-2 95 -88 96q-63 0 -86 -54q-9 -22 -9 -48v-290z" glyph-name="n" horiz-adv-x="581" unicode="n"/>
<glyph d="M478 65q-69 -74 -192 -74q-124 1 -193 74q-68 76 -68 196q1 121 69 196q69 75 192 75t192 -75q69 -76 69 -196q-1 -121 -69 -196zM390 261q-2 135 -104 136q-103 -2 -104 -136q2 -134 104 -135q103 2 104 135z" glyph-name="o" horiz-adv-x="572" unicode="o"/>
<glyph d="M204 -229h-154v752h138l16 -50h4q51 59 139 59q96 -1 154 -76q58 -77 58 -195q-1 -119 -58 -195q-58 -75 -154 -75q-89 1 -139 59h-4v-279zM403 261q0 112 -73 132q-14 4 -30 4q-82 0 -99 -91q-4 -22 -4 -45q2 -134 103 -135q102 2 103 135z" glyph-name="p" horiz-adv-x="584" unicode="p"/>
<glyph d="M534 -229h-154v279h-4q-51 -59 -139 -59q-97 1 -155 75q-57 76 -57 195q0 120 57 195q59 76 155 76q89 -1 139 -59h4l16 50h138v-752zM387 261q0 112 -73 132q-14 4 -30 4q-82 0 -99 -91q-4 -22 -4 -45q2 -134 103 -135q102 2 103 135z" glyph-name="q" horiz-adv-x="574" unicode="q"/>
<glyph d="M194 0h-144v523h128l12 -76h4q43 84 134 85h36v-141h-50q-80 0 -108 -69q-12 -29 -12 -64v-258z" glyph-name="r" horiz-adv-x="389" unicode="r"/>
<glyph d="M257 -9q-184 0 -223 128q-8 27 -9 58h154q0 -41 46 -54q15 -4 32 -4q69 4 74 38q-2 30 -53 41l-77 15q-159 31 -160 164q0 83 81 126q56 29 134 29q99 -1 158 -50q60 -50 60 -125h-152q1 37 -38 50q-15 4 -31 4q-48 0 -59 -27q-2 -5 -2 -9q0 -29 39 -36l100 -19 q142 -26 154 -139q1 -11 1 -23q0 -99 -97 -142q-56 -25 -132 -25z" glyph-name="s" horiz-adv-x="511" unicode="s"/>
<glyph d="M280 -9q-125 0 -162 94q-13 33 -13 73v234h-85v131h92v109l137 28h10v-137h125v-131h-125v-197q0 -62 50 -69q9 -1 17 -1q26 0 50 9h10v-128q-41 -15 -106 -15z" glyph-name="t" horiz-adv-x="431" unicode="t"/>
<glyph d="M375 232v291h154v-314q-1 -92 -60 -155q-60 -63 -179 -63h-1q-120 0 -180 63q-59 64 -59 155v314h154v-291q2 -95 86 -96q84 2 85 96z" glyph-name="u" horiz-adv-x="579" unicode="u"/>
<glyph d="M373 0h-197l-166 513v10h158l106 -378h4l103 378h156v-10z" glyph-name="v" horiz-adv-x="547" unicode="v"/>
<glyph d="M341 0h-203l-128 513v10h151l79 -358h4l70 358h206l70 -358h4l79 358h150v-10l-128 -513h-203l-72 358h-4z" glyph-name="w" horiz-adv-x="833" unicode="w"/>
<glyph d="M185 0h-170v10l160 253l-154 250v10h166l93 -165h4l93 165h166v-10l-154 -250l160 -253v-10h-170l-95 170h-4z" glyph-name="x" horiz-adv-x="564" unicode="x"/>
<glyph d="M294 -229h-167v10l75 219h-26l-166 513v10h158l106 -371h4l113 371h166v-10z" glyph-name="y" horiz-adv-x="567" unicode="y"/>
<glyph d="M467 0h-432v129l241 259v4h-240v131h429v-130l-240 -258v-4h242v-131z" glyph-name="z" horiz-adv-x="502" unicode="z"/>
<glyph d="M172 298v-4q79 -14 80 -102v-175q2 -74 70 -75h53v-120h-92q-67 1 -114 44q-46 44 -46 113v167q0 69 -55 85q-17 4 -38 5v120q74 3 88 53q5 16 5 37v167q1 70 46 113q48 44 114 44h92v-120h-53q-69 -2 -70 -75v-175q-2 -89 -80 -102z" glyph-name="braceleft" horiz-adv-x="430" unicode="{"/>
<glyph d="M204 -138h-134v898h134v-898z" glyph-name="bar" horiz-adv-x="274" unicode="|"/>
<glyph d="M307 613v-167q0 -69 55 -85q17 -4 38 -5v-120q-74 -3 -88 -53q-5 -16 -5 -37v-167q-1 -70 -46 -113q-48 -44 -114 -44h-92v120h53q69 2 70 75v175q2 89 80 102v4q-79 14 -80 102v175q-2 74 -70 75h-53v120h92q67 -1 114 -44q46 -44 46 -113z" glyph-name="braceright" horiz-adv-x="430" unicode="}"/>
<glyph d="M365 197q-48 1 -97 27l-46 25q-28 15 -54 15q-56 -1 -76 -57l-77 51q25 89 98 116q25 9 53 9q49 -1 96 -26l46 -25q30 -16 57 -16q56 1 76 57l77 -51q-25 -87 -97 -115q-27 -10 -56 -10z" glyph-name="asciitilde" horiz-adv-x="533" unicode="~"/>
<glyph glyph-name="uni00A0" horiz-adv-x="280" unicode=" "/>
<glyph d="M125 353q-79 0 -89 71q-1 9 -1 18q0 80 73 89q9 1 17 1q71 0 87 -61q3 -14 3 -29q0 -71 -62 -86q-14 -3 -28 -3zM208 -189h-164v96l21 382h117l26 -382v-96z" glyph-name="exclamdown" horiz-adv-x="250" unicode="¡"/>
<glyph d="M329 476v-249q37 23 42 69h155q-8 -130 -109 -185q-39 -21 -88 -28v-83h-98v86q-129 23 -180 137q-26 57 -26 129q0 151 99 223q46 33 107 43v82h98v-81q127 -17 175 -121q19 -42 22 -91h-155q-5 47 -42 69zM182 352q1 -94 49 -123v245q-49 -30 -49 -122z" glyph-name="cent" horiz-adv-x="551" unicode="¢"/>
<glyph d="M591 0h-560v131q52 0 65 51q4 14 4 29v61h-70v133h70v88q0 95 63 156q65 63 173 63q111 -1 172 -64q62 -66 62 -158h-145q0 70 -53 91q-18 6 -38 6q-61 0 -82 -53q-8 -19 -8 -41v-88h169v-133h-169v-65q0 -57 -33 -75v-4h380v-128z" glyph-name="sterling" horiz-adv-x="611" unicode="£"/>
<glyph d="M169 55l-68 -70l-81 79l68 71q-31 54 -31 114q1 62 32 116l-69 72l81 79l70 -72q90 52 187 16q16 -6 31 -14l68 70l81 -79l-67 -69q35 -57 35 -119q-1 -66 -34 -117l66 -68l-81 -79l-66 68q-54 -29 -110 -29q-59 1 -112 31zM281 147q58 0 85 49q13 24 13 53q0 61 -49 88 q-22 13 -49 13q-58 0 -86 -48q-14 -24 -14 -53q0 -62 50 -90q23 -12 50 -12z" glyph-name="currency" horiz-adv-x="558" unicode="¤"/>
<glyph d="M505 700h183v-10l-172 -277h81v-111h-149l-14 -22v-47h163v-111h-163v-122h-158v122h-175v111h175v45l-15 24h-160v111h88l-179 277v10h196l148 -264h4z" glyph-name="yen" horiz-adv-x="698" unicode="¥"/>
<glyph d="M204 402h-134v358h134v-358zM204 -138h-134v358h134v-358z" glyph-name="brokenbar" horiz-adv-x="274" unicode="¦"/>
<glyph d="M308 -245q-96 1 -151 55t-55 139h123q0 -55 52 -70q15 -4 31 -4q55 0 72 38q5 11 5 22q-1 40 -48 73l-161 111q-81 56 -99 115q-7 24 -7 54q1 89 91 140q-41 48 -41 109q1 74 55 123q56 49 150 49q96 -1 151 -55t55 -139h-123q0 55 -52 70q-15 4 -31 4q-55 0 -72 -38 q-5 -11 -5 -22q1 -40 48 -73l161 -111q81 -55 98 -113q8 -26 8 -57q-1 -88 -91 -139q41 -48 41 -109q-1 -73 -56 -123q-56 -49 -149 -49zM241 215l144 -101q50 19 51 61q-1 44 -44 74l-144 101q-50 -19 -51 -61q1 -44 44 -74z" glyph-name="section" horiz-adv-x="633" unicode="§"/>
<glyph d="M124 592q-64 0 -73 58q-1 8 -1 16q0 58 51 70q11 3 23 3q56 0 70 -48q3 -12 3 -25q0 -55 -46 -70q-13 -4 -27 -4zM326 592q-64 0 -72 59q-1 8 -1 15q0 60 53 71q10 2 20 2q55 0 70 -46q4 -13 4 -27q0 -54 -46 -70q-13 -4 -28 -4z" glyph-name="dieresis" horiz-adv-x="450" unicode="¨"/>
<glyph d="M760 350q-2 -160 -98 -259q-96 -100 -252 -100q-156 1 -253 100q-95 101 -97 259q2 158 97 258q99 101 253 101q156 -1 252 -101t98 -258zM663 350q-1 164 -112 230q-60 35 -141 35q-155 0 -218 -116q-34 -62 -35 -149q1 -164 112 -230q60 -35 141 -35q155 0 218 116 q34 62 35 149zM412 233q70 0 78 66h93q-8 -92 -82 -132q-39 -20 -88 -20q-126 0 -168 104q-17 42 -17 96q0 129 88 178q42 23 96 23q79 -1 122 -46q44 -46 47 -108h-93q-6 66 -76 67q-90 0 -90 -114t90 -114z" glyph-name="copyright" horiz-adv-x="820" unicode="©"/>
<glyph d="M144 296q-82 0 -109 60q-10 21 -10 47q0 88 101 102q18 2 36 2q44 0 72 -9v29q-2 40 -52 41q-37 0 -47 -26q-2 -6 -2 -11h-94q0 75 70 104q34 14 77 14q96 0 133 -62q16 -27 16 -60v-225h-90l-7 31h-3q-32 -37 -91 -37zM169 374q48 0 62 34q3 9 3 18v3q-26 11 -61 11 q-45 -5 -49 -32q2 -33 45 -34z" glyph-name="ordfeminine" horiz-adv-x="360" unicode="ª"/>
<glyph d="M332 66h-146l-166 212v10l166 212h146v-10l-140 -207l140 -207v-10zM592 66h-146l-166 212v10l166 212h146v-10l-140 -207l140 -207v-10z" glyph-name="guillemotleft" horiz-adv-x="622" unicode="«"/>
<glyph d="M386 224h-306v138h306v-138z" glyph-name="uni00AD" horiz-adv-x="466" unicode="­"/>
<glyph d="M428 336q-67 -68 -171 -68q-105 1 -171 68q-66 68 -66 168t66 168q67 68 171 68q105 -1 171 -68q66 -68 66 -168t-66 -168zM141 385q44 -42 116 -42q73 1 116 42q43 44 43 119q-1 77 -43 118q-44 43 -116 43q-73 -1 -116 -43t-43 -118q1 -76 43 -119zM231 397h-61v208 h109q51 0 71 -41q7 -16 7 -33q-1 -47 -34 -66l41 -62v-6h-66l-36 58h-31v-58zM231 551v-42h36q24 2 25 22q-2 19 -25 20h-36z" glyph-name="registered" horiz-adv-x="514" unicode="®"/>
<glyph d="M323 607h-293v111h293v-111z" glyph-name="overscore" horiz-adv-x="353" unicode="¯"/>
<glyph d="M333 415q-52 -50 -127 -50q-76 1 -127 50q-51 50 -51 125q1 76 51 125q52 50 127 50q76 -1 127 -50q51 -50 51 -125q-1 -76 -51 -125zM206 616q-49 0 -66 -44q-6 -15 -6 -32q0 -53 42 -70q14 -6 30 -6q49 0 66 44q6 15 6 32q0 54 -43 71q-14 5 -29 5z" glyph-name="degree" horiz-adv-x="412" unicode="°"/>
<glyph d="M320 190h-140v137h-175v132h175v137h140v-137h171v-132h-171v-137zM491 7h-486v132h486v-132z" glyph-name="plusminus" horiz-adv-x="496" unicode="±"/>
<glyph d="M376 248h-340v86l157 136q56 50 64 73q4 12 4 24q0 40 -39 50q-9 2 -19 2q-50 0 -60 -45q-2 -9 -2 -18h-106q0 95 77 136q40 20 91 20q73 -1 119 -40t46 -101q0 -57 -49 -107q-14 -15 -32 -30l-105 -89v-3h194v-94z" glyph-name="uni00B2" horiz-adv-x="411" unicode="²"/>
<glyph d="M220 236q-121 0 -165 76q-20 35 -20 79h105q0 -49 52 -60q13 -3 27 -3q66 8 72 53q0 44 -57 52q-11 2 -23 2h-40v92h38q66 1 67 46q0 36 -41 45q-10 2 -21 2q-64 -4 -66 -64h-105q0 95 79 135q41 21 94 21q71 -1 119 -36q48 -36 49 -93q-1 -69 -60 -95v-3q62 -22 73 -83 q2 -11 2 -22q0 -96 -90 -130q-39 -14 -89 -14z" glyph-name="uni00B3" horiz-adv-x="434" unicode="³"/>
<glyph d="M140 583h-110v10l66 146h160v-10z" glyph-name="acute" horiz-adv-x="286" unicode="´"/>
<glyph d="M346 -104h-125v457q-78 1 -133 55q-55 56 -55 134q1 78 55 133q56 55 133 55h369v-109h-59v-725h-125v725h-60v-725z" glyph-name="paragraph" horiz-adv-x="600" unicode="¶"/>
<glyph d="M125 209q-80 0 -89 74q-1 8 -1 16q0 78 71 88q10 1 19 1q70 0 86 -59q4 -14 4 -30q0 -71 -60 -86q-15 -4 -30 -4z" glyph-name="middot" horiz-adv-x="238" unicode="·"/>
<glyph d="M163 -228q-82 0 -117 51q-16 23 -16 51h90q0 -20 26 -28q8 -2 16 -2q39 0 46 23q1 4 1 7q-2 29 -44 30h-32l-25 31l40 79h101l-36 -50q69 -6 90 -57q7 -17 7 -35q0 -61 -67 -87q-35 -13 -80 -13z" glyph-name="cedilla" horiz-adv-x="340" unicode="¸"/>
<glyph d="M260 248h-105v343h-4l-109 -82h-7v104l118 87h107v-452z" glyph-name="uni00B9" horiz-adv-x="295" unicode="¹"/>
<glyph d="M25 473q0 106 75 152q41 24 95 24q82 -1 126 -49q45 -49 45 -127q-1 -79 -45 -128q-45 -49 -126 -49q-107 0 -150 84q-20 41 -20 93zM195 384q67 2 68 89q-2 87 -68 88q-66 -2 -67 -88q2 -88 67 -89z" glyph-name="ordmasculine" horiz-adv-x="391" unicode="º"/>
<glyph d="M342 278l-166 -212h-146v10l140 207l-140 207v10h146l166 -212v-10zM602 278l-166 -212h-146v10l140 207l-140 207v10h146l166 -212v-10z" glyph-name="guillemotright" horiz-adv-x="622" unicode="»"/>
<glyph d="M260 248h-105v343h-4l-109 -82h-7v104l118 87h107v-452zM286 0h-119v10l434 690h117v-10zM827 0h-105v80h-207v102l171 270h141v-278h52v-94h-52v-80zM619 178v-4h103v159h-4z" glyph-name="onequarter" horiz-adv-x="914" unicode="¼"/>
<glyph d="M260 248h-105v343h-4l-109 -82h-7v104l118 87h107v-452zM286 0h-119v10l434 690h117v-10zM920 0h-340v86l157 136q56 50 64 73q4 12 4 24q0 40 -39 50q-9 2 -19 2q-50 0 -60 -45q-2 -9 -2 -18h-106q0 95 77 136q40 20 91 20q73 -1 119 -40t46 -101q0 -57 -49 -107 q-14 -15 -32 -30l-105 -89v-3h194v-94z" glyph-name="onehalf" horiz-adv-x="955" unicode="½"/>
<glyph d="M220 236q-121 0 -165 76q-20 35 -20 79h105q0 -49 52 -60q13 -3 27 -3q66 8 72 53q0 44 -57 52q-11 2 -23 2h-40v92h38q66 1 67 46q0 36 -41 45q-10 2 -21 2q-64 -4 -66 -64h-105q0 95 79 135q41 21 94 21q71 -1 119 -36q48 -36 49 -93q-1 -69 -60 -95v-3q62 -22 73 -83 q2 -11 2 -22q0 -96 -90 -130q-39 -14 -89 -14zM376 0h-119v10l434 690h117v-10zM917 0h-105v80h-207v102l171 270h141v-278h52v-94h-52v-80zM709 178v-4h103v159h-4z" glyph-name="threequarters" horiz-adv-x="1004" unicode="¾"/>
<glyph d="M282 354q-67 0 -85 56q-5 15 -5 33q0 71 60 86q15 4 30 4q80 0 89 -74q1 -8 1 -16q0 -78 -71 -88q-10 -1 -19 -1zM269 -185q-110 1 -174 55q-65 57 -65 139q1 94 76 152l42 33q36 28 50 46q14 19 14 47v16h150v-16q0 -75 -42 -122q-18 -20 -48 -44l-32 -25 q-42 -33 -49 -54q-3 -11 -3 -24q0 -48 47 -63q16 -5 34 -5q87 2 88 87h156q0 -134 -103 -190q-58 -32 -141 -32z" glyph-name="questiondown" horiz-adv-x="543" unicode="¿"/>
<glyph d="M432 770v-10h-110l-116 146v10h160zM250 700h201l241 -690v-10h-174l-41 133h-260l-41 -133h-166v10zM345 543l-85 -272h174l-85 272h-4z" glyph-name="Agrave" unicode="À"/>
<glyph d="M509 916v-10l-116 -146h-110v10l66 146h160zM250 700h201l241 -690v-10h-174l-41 133h-260l-41 -133h-166v10zM345 543l-85 -272h174l-85 272h-4z" glyph-name="Aacute" unicode="Á"/>
<glyph d="M355 816h-4l-56 -54h-118v10l94 142h163l94 -142v-10h-118zM250 700h201l241 -690v-10h-174l-41 133h-260l-41 -133h-166v10zM345 543l-85 -272h174l-85 272h-4z" glyph-name="Acircumflex" unicode="Â"/>
<glyph d="M285 799q-26 -2 -27 -37h-92v15q0 100 71 123q17 6 37 6q34 -1 70 -19l16 -8q24 -13 36 -13q20 0 23 23q1 7 1 15h91v-15q-2 -128 -107 -129q-34 1 -68 18l-15 8q-23 13 -36 13zM250 700h201l241 -690v-10h-174l-41 133h-260l-41 -133h-166v10zM345 543l-85 -272h174 l-85 272h-4z" glyph-name="Atilde" unicode="Ã"/>
<glyph d="M252 769q-64 0 -73 58q-1 8 -1 16q0 58 51 70q11 3 23 3q56 0 70 -48q3 -12 3 -25q0 -55 -46 -70q-13 -4 -27 -4zM454 769q-64 0 -72 59q-1 8 -1 15q0 60 53 71q10 2 20 2q55 0 70 -46q4 -13 4 -27q0 -58 -50 -71q-12 -3 -24 -3zM250 700h201l241 -690v-10h-174l-41 133 h-260l-41 -133h-166v10zM345 543l-85 -272h174l-85 272h-4z" glyph-name="Adieresis" unicode="Ä"/>
<glyph d="M349 745q-67 0 -100 52q-17 28 -17 61q0 68 55 99q28 15 62 15q71 0 103 -55q15 -27 15 -59q0 -69 -57 -99q-28 -14 -61 -14zM348 901q-32 2 -40 -30q-9 -31 14 -48q11 -8 26 -7q34 -2 42 29q9 30 -13 48q-13 8 -29 8zM250 700h201l241 -690v-10h-174l-41 133h-260 l-41 -133h-166v10zM345 543l-85 -272h174l-85 272h-4z" glyph-name="Aring" unicode="Å"/>
<glyph d="M176 0h-166v10l240 690h626v-140h-376l45 -129h300v-140h-251l53 -152h229v-139h-358l-41 133h-260zM345 543l-85 -272h174l-85 272h-4z" glyph-name="AE" horiz-adv-x="916" unicode="Æ"/>
<glyph d="M369 132q104 0 140 87q7 18 11 38h159q-11 -105 -85 -179q-75 -74 -189 -85l-21 -29q69 -6 90 -57q7 -17 7 -35q0 -61 -67 -87q-35 -13 -80 -13q-82 0 -117 51q-16 23 -16 51h90q0 -20 26 -28q8 -2 16 -2q39 0 46 23q1 4 1 7q-2 29 -44 30h-32l-25 31l30 60 q-134 20 -207 116q-72 98 -72 238q1 159 88 259q90 101 251 101q131 -1 216 -79q86 -81 94 -194h-160q-8 82 -76 115q-33 16 -74 16q-137 0 -170 -134q-9 -38 -9 -84q0 -177 123 -210q26 -7 56 -7z" glyph-name="Ccedilla" horiz-adv-x="709" unicode="Ç"/>
<glyph d="M416 760h-110l-116 146v10h160l66 -146v-10zM570 0h-500v700h500v-140h-343v-129h312v-140h-312v-152h343v-139z" glyph-name="Egrave" horiz-adv-x="610" unicode="È"/>
<glyph d="M377 760h-110v10l66 146h160v-10zM570 0h-500v700h500v-140h-343v-129h312v-140h-312v-152h343v-139z" glyph-name="Eacute" horiz-adv-x="610" unicode="É"/>
<glyph d="M279 762h-118v10l94 142h163l94 -142v-10h-118l-55 54h-4zM570 0h-500v700h500v-140h-343v-129h312v-140h-312v-152h343v-139z" glyph-name="Ecircumflex" horiz-adv-x="610" unicode="Ê"/>
<glyph d="M236 769q-64 0 -73 58q-1 8 -1 16q0 58 51 70q11 3 23 3q56 0 70 -48q3 -12 3 -25q0 -55 -46 -70q-13 -4 -27 -4zM438 769q-64 0 -72 59q-1 8 -1 15q0 60 53 71q10 2 20 2q55 0 70 -46q4 -13 4 -27q0 -58 -50 -71q-12 -3 -24 -3zM570 0h-500v700h500v-140h-343v-129h312 v-140h-312v-152h343v-139z" glyph-name="Edieresis" horiz-adv-x="610" unicode="Ë"/>
<glyph d="M233 760h-110l-116 146v10h160l66 -146v-10zM228 0h-158v700h158v-700z" glyph-name="Igrave" horiz-adv-x="298" unicode="Ì"/>
<glyph d="M194 760h-110v10l66 146h160v-10zM228 0h-158v700h158v-700z" glyph-name="Iacute" horiz-adv-x="298" unicode="Í"/>
<glyph d="M96 762h-118v10l94 142h163l94 -142v-10h-118l-55 54h-4zM228 0h-158v700h158v-700z" glyph-name="Icircumflex" horiz-adv-x="298" unicode="Î"/>
<glyph d="M53 769q-64 0 -73 58q-1 8 -1 16q0 58 51 70q11 3 23 3q56 0 70 -48q3 -12 3 -25q0 -55 -46 -70q-13 -4 -27 -4zM182 843q0 60 53 71q10 2 20 2q55 0 70 -46q4 -13 4 -27q0 -64 -58 -73q-8 -1 -16 -1q-64 0 -72 59q-1 8 -1 15zM228 0h-158v700h158v-700z" glyph-name="Idieresis" horiz-adv-x="298" unicode="Ï"/>
<glyph d="M111 700h242q159 -1 260 -97q102 -98 102 -253q-1 -149 -101 -250q-101 -100 -261 -100h-242v297h-71v131h71v272zM258 139h86q196 0 210 184q1 13 1 27q0 184 -164 207q-23 3 -47 3h-86v-132h142v-131h-142v-158z" glyph-name="Eth" horiz-adv-x="745" unicode="Ð"/>
<glyph d="M453 760q-34 1 -68 18l-15 8q-23 13 -36 13q-26 -2 -27 -37h-92v15q0 100 71 123q17 6 37 6q34 -1 70 -19l16 -8q24 -13 36 -13q20 0 23 23q1 7 1 15h91v-15q-2 -128 -107 -129zM225 0h-155v700h185l258 -457h4v457h156v-700h-186l-258 454h-4v-454z" glyph-name="Ntilde" horiz-adv-x="743" unicode="Ñ"/>
<glyph d="M452 760h-110l-116 146v10h160l66 -146v-10zM30 350q1 158 88 258q90 101 252 101q162 -1 251 -101q89 -102 89 -258q-1 -157 -89 -258q-90 -101 -251 -101q-163 1 -252 101q-88 101 -88 258zM370 567q-142 0 -173 -141q-7 -35 -7 -76q0 -172 119 -209q28 -8 61 -8 q138 0 171 133q9 38 9 84q0 172 -119 209q-28 8 -61 8z" glyph-name="Ograve" horiz-adv-x="740" unicode="Ò"/>
<glyph d="M413 760h-110v10l66 146h160v-10zM30 350q1 158 88 258q90 101 252 101q162 -1 251 -101q89 -102 89 -258q-1 -157 -89 -258q-90 -101 -251 -101q-163 1 -252 101q-88 101 -88 258zM370 567q-142 0 -173 -141q-7 -35 -7 -76q0 -172 119 -209q28 -8 61 -8q138 0 171 133 q9 38 9 84q0 172 -119 209q-28 8 -61 8z" glyph-name="Oacute" horiz-adv-x="740" unicode="Ó"/>
<glyph d="M315 762h-118v10l94 142h163l94 -142v-10h-118l-55 54h-4zM30 350q1 158 88 258q90 101 252 101q162 -1 251 -101q89 -102 89 -258q-1 -157 -89 -258q-90 -101 -251 -101q-163 1 -252 101q-88 101 -88 258zM370 567q-142 0 -173 -141q-7 -35 -7 -76q0 -172 119 -209 q28 -8 61 -8q138 0 171 133q9 38 9 84q0 172 -119 209q-28 8 -61 8z" glyph-name="Ocircumflex" horiz-adv-x="740" unicode="Ô"/>
<glyph d="M424 760q-34 1 -68 18l-15 8q-23 13 -36 13q-26 -2 -27 -37h-92v15q0 100 71 123q17 6 37 6q34 -1 70 -19l16 -8q24 -13 36 -13q20 0 23 23q1 7 1 15h91v-15q-2 -128 -107 -129zM30 350q1 158 88 258q90 101 252 101q162 -1 251 -101q89 -102 89 -258q-1 -157 -89 -258 q-90 -101 -251 -101q-163 1 -252 101q-88 101 -88 258zM370 567q-142 0 -173 -141q-7 -35 -7 -76q0 -172 119 -209q28 -8 61 -8q138 0 171 133q9 38 9 84q0 172 -119 209q-28 8 -61 8z" glyph-name="Otilde" horiz-adv-x="740" unicode="Õ"/>
<glyph d="M272 769q-64 0 -73 58q-1 8 -1 16q0 58 51 70q11 3 23 3q56 0 70 -48q3 -12 3 -25q0 -55 -46 -70q-13 -4 -27 -4zM474 769q-64 0 -72 59q-1 8 -1 15q0 60 53 71q10 2 20 2q55 0 70 -46q4 -13 4 -27q0 -58 -50 -71q-12 -3 -24 -3zM30 350q1 158 88 258q90 101 252 101 q162 -1 251 -101q89 -102 89 -258q-1 -157 -89 -258q-90 -101 -251 -101q-163 1 -252 101q-88 101 -88 258zM370 567q-142 0 -173 -141q-7 -35 -7 -76q0 -172 119 -209q28 -8 61 -8q138 0 171 133q9 38 9 84q0 172 -119 209q-28 8 -61 8z" glyph-name="Odieresis" horiz-adv-x="740" unicode="Ö"/>
<glyph d="M234 226l-136 -136l-93 93l136 136l-136 135l93 93l136 -135l135 135l93 -93l-135 -135l135 -136l-93 -93z" glyph-name="multiply" horiz-adv-x="467" unicode="×"/>
<glyph d="M575 738h145v-10l-92 -128q82 -95 82 -250q-1 -157 -89 -258q-90 -101 -251 -101q-90 0 -156 31l-51 -70h-143v10l95 133q-85 99 -85 255q1 158 88 258q90 101 252 101q90 0 160 -33zM190 350q0 -72 21 -120l233 324q-31 13 -74 13q-142 0 -173 -141q-7 -35 -7 -76z M550 350q0 70 -19 115l-230 -321q34 -11 69 -11q138 0 171 133q9 38 9 84z" glyph-name="Oslash" horiz-adv-x="740" unicode="Ø"/>
<glyph d="M439 760h-110l-116 146v10h160l66 -146v-10zM356 -9q-129 1 -213 74q-83 75 -83 212v423h157v-421q2 -147 139 -148q139 2 140 148v421h158v-423q-1 -139 -84 -212q-84 -74 -214 -74z" glyph-name="Ugrave" horiz-adv-x="714" unicode="Ù"/>
<glyph d="M400 760h-110v10l66 146h160v-10zM356 -9q-129 1 -213 74q-83 75 -83 212v423h157v-421q2 -147 139 -148q139 2 140 148v421h158v-423q-1 -139 -84 -212q-84 -74 -214 -74z" glyph-name="Uacute" horiz-adv-x="714" unicode="Ú"/>
<glyph d="M302 762h-118v10l94 142h163l94 -142v-10h-118l-55 54h-4zM356 -9q-129 1 -213 74q-83 75 -83 212v423h157v-421q2 -147 139 -148q139 2 140 148v421h158v-423q-1 -139 -84 -212q-84 -74 -214 -74z" glyph-name="Ucircumflex" horiz-adv-x="714" unicode="Û"/>
<glyph d="M259 769q-64 0 -73 58q-1 8 -1 16q0 58 51 70q11 3 23 3q56 0 70 -48q3 -12 3 -25q0 -55 -46 -70q-13 -4 -27 -4zM388 843q0 60 53 71q10 2 20 2q55 0 70 -46q4 -13 4 -27q0 -64 -58 -73q-8 -1 -16 -1q-64 0 -72 59q-1 8 -1 15zM356 -9q-129 1 -213 74q-83 75 -83 212 v423h157v-421q2 -147 139 -148q139 2 140 148v421h158v-423q-1 -139 -84 -212q-84 -74 -214 -74z" glyph-name="Udieresis" horiz-adv-x="714" unicode="Ü"/>
<glyph d="M401 760h-110v10l66 146h160v-10zM429 0h-158v278l-261 412v10h183l156 -264h4l152 264h183v-10l-259 -410v-280z" glyph-name="Yacute" horiz-adv-x="698" unicode="Ý"/>
<glyph d="M228 0h-158v700h158v-90h160q105 0 168 -66q63 -64 63 -165q-1 -102 -64 -169q-64 -66 -167 -66h-160v-144zM228 471v-187h129q101 2 102 95q0 76 -74 90q-14 2 -28 2h-129z" glyph-name="Thorn" horiz-adv-x="649" unicode="Þ"/>
<glyph d="M455 -9q-143 0 -195 96q-21 40 -23 92h144q2 -62 74 -63q49 0 58 28q2 5 2 9q0 26 -39 42q-12 5 -29 11l-64 20q-129 41 -130 142q0 80 75 120q12 7 37 17q48 22 56 38q4 8 4 15q-2 59 -106 60q-92 0 -111 -73q-4 -17 -4 -35v-510h-154v510q1 110 74 175q76 65 195 65 q161 0 222 -92q29 -43 29 -99q0 -90 -84 -133q-13 -6 -38 -17q-46 -19 -52 -33q-2 -5 -2 -9q0 -24 39 -36l97 -31q112 -35 127 -117q3 -16 3 -32q0 -93 -85 -135q-51 -25 -120 -25z" glyph-name="germandbls" horiz-adv-x="685" unicode="ß"/>
<glyph d="M360 583h-110l-116 146v10h160l66 -146v-10zM208 -9q-114 0 -160 78q-23 38 -23 86q0 118 120 151q40 10 90 10q67 0 112 -15v43q-2 63 -80 64q-57 0 -72 -38q-4 -10 -4 -20h-144q0 104 90 152q56 30 135 30q105 -1 167 -53q62 -54 62 -135v-344h-138l-11 47h-4 q-51 -56 -140 -56zM247 111q66 0 91 45q9 17 9 35v5q-44 17 -94 17q-61 0 -74 -36q-2 -7 -2 -14q0 -41 47 -50q11 -2 23 -2z" glyph-name="agrave" horiz-adv-x="541" unicode="à"/>
<glyph d="M321 583h-110v10l66 146h160v-10zM208 -9q-114 0 -160 78q-23 38 -23 86q0 118 120 151q40 10 90 10q67 0 112 -15v43q-2 63 -80 64q-57 0 -72 -38q-4 -10 -4 -20h-144q0 104 90 152q56 30 135 30q105 -1 167 -53q62 -54 62 -135v-344h-138l-11 47h-4q-51 -56 -140 -56z M247 111q66 0 91 45q9 17 9 35v5q-44 17 -94 17q-61 0 -74 -36q-2 -7 -2 -14q0 -41 47 -50q11 -2 23 -2z" glyph-name="aacute" horiz-adv-x="541" unicode="á"/>
<glyph d="M223 585h-118v10l94 142h163l94 -142v-10h-118l-55 54h-4zM208 -9q-114 0 -160 78q-23 38 -23 86q0 118 120 151q40 10 90 10q67 0 112 -15v43q-2 63 -80 64q-57 0 -72 -38q-4 -10 -4 -20h-144q0 104 90 152q56 30 135 30q105 -1 167 -53q62 -54 62 -135v-344h-138 l-11 47h-4q-51 -56 -140 -56zM247 111q66 0 91 45q9 17 9 35v5q-44 17 -94 17q-61 0 -74 -36q-2 -7 -2 -14q0 -41 47 -50q11 -2 23 -2z" glyph-name="acircumflex" horiz-adv-x="541" unicode="â"/>
<glyph d="M332 583q-34 1 -68 18l-15 8q-23 13 -36 13q-26 -2 -27 -37h-92v15q0 100 71 123q17 6 37 6q34 -1 70 -19l16 -8q24 -13 36 -13q20 0 23 23q1 7 1 15h91v-15q-2 -128 -107 -129zM208 -9q-114 0 -160 78q-23 38 -23 86q0 118 120 151q40 10 90 10q67 0 112 -15v43 q-2 63 -80 64q-57 0 -72 -38q-4 -10 -4 -20h-144q0 104 90 152q56 30 135 30q105 -1 167 -53q62 -54 62 -135v-344h-138l-11 47h-4q-51 -56 -140 -56zM247 111q66 0 91 45q9 17 9 35v5q-44 17 -94 17q-61 0 -74 -36q-2 -7 -2 -14q0 -41 47 -50q11 -2 23 -2z" glyph-name="atilde" horiz-adv-x="541" unicode="ã"/>
<glyph d="M180 592q-64 0 -73 58q-1 8 -1 16q0 58 51 70q11 3 23 3q56 0 70 -48q3 -12 3 -25q0 -55 -46 -70q-13 -4 -27 -4zM382 592q-64 0 -72 59q-1 8 -1 15q0 60 53 71q10 2 20 2q55 0 70 -46q4 -13 4 -27q0 -54 -46 -70q-13 -4 -28 -4zM208 -9q-114 0 -160 78q-23 38 -23 86 q0 118 120 151q40 10 90 10q67 0 112 -15v43q-2 63 -80 64q-57 0 -72 -38q-4 -10 -4 -20h-144q0 104 90 152q56 30 135 30q105 -1 167 -53q62 -54 62 -135v-344h-138l-11 47h-4q-51 -56 -140 -56zM247 111q66 0 91 45q9 17 9 35v5q-44 17 -94 17q-61 0 -74 -36q-2 -7 -2 -14 q0 -41 47 -50q11 -2 23 -2z" glyph-name="adieresis" horiz-adv-x="541" unicode="ä"/>
<glyph d="M277 568q-67 0 -100 52q-17 28 -17 61q0 68 55 99q28 15 62 15q71 0 103 -55q15 -27 15 -59q0 -69 -57 -99q-28 -14 -61 -14zM276 639q34 -2 42 29q9 30 -13 48q-13 8 -29 8q-32 2 -40 -30q-9 -31 14 -48q11 -8 26 -7zM208 -9q-114 0 -160 78q-23 38 -23 86 q0 118 120 151q40 10 90 10q67 0 112 -15v43q-2 63 -80 64q-57 0 -72 -38q-4 -10 -4 -20h-144q0 104 90 152q56 30 135 30q105 -1 167 -53q62 -54 62 -135v-344h-138l-11 47h-4q-51 -56 -140 -56zM247 111q66 0 91 45q9 17 9 35v5q-44 17 -94 17q-61 0 -74 -36q-2 -7 -2 -14 q0 -41 47 -50q11 -2 23 -2z" glyph-name="aring" horiz-adv-x="541" unicode="å"/>
<glyph d="M213 -9q-113 0 -163 75q-25 39 -25 89q0 118 120 151q40 10 90 10q67 0 112 -15v43q-2 63 -80 64q-57 0 -72 -38q-4 -10 -4 -20h-144q0 104 90 152q56 30 135 30q105 -1 167 -58h4q62 58 158 58q116 -1 183 -73t67 -182v-57h-349q1 -93 83 -103q10 -1 19 -1q71 1 91 52 h149q-10 -75 -75 -126q-63 -51 -165 -51q-127 1 -193 87h-4q-63 -87 -194 -87zM503 317h191q-4 72 -67 86q-13 3 -26 3q-80 0 -95 -69q-2 -10 -3 -20zM247 111q66 0 91 45q9 17 9 35v5q-44 17 -94 17q-61 0 -74 -36q-2 -7 -2 -14q0 -41 47 -50q11 -2 23 -2z" glyph-name="ae" horiz-adv-x="876" unicode="æ"/>
<glyph d="M284 126q57 0 79 50q6 14 8 30h155q-8 -124 -101 -181q-44 -26 -101 -32l-21 -29q69 -6 90 -57q7 -17 7 -35q0 -61 -67 -87q-35 -13 -80 -13q-82 0 -117 51q-16 23 -16 51h90q0 -20 26 -28q8 -2 16 -2q39 0 46 23q1 4 1 7q-2 29 -44 30h-32l-25 31l31 61 q-125 23 -177 134q-27 59 -27 132q1 121 68 195q68 75 191 75q112 0 174 -60q62 -61 68 -155h-155q-6 57 -54 74q-16 6 -33 6q-102 0 -102 -135q1 -135 102 -136z" glyph-name="ccedilla" horiz-adv-x="551" unicode="ç"/>
<glyph d="M363 583h-110l-116 146v10h160l66 -146v-10zM284 -9q-120 1 -190 76q-69 77 -69 194q1 118 67 194q69 77 189 77q116 -1 183 -73t67 -182v-57h-349q1 -93 83 -103q10 -1 19 -1q71 1 91 52h149q-10 -75 -75 -126q-63 -51 -165 -51zM183 317h191q-4 72 -67 86q-13 3 -26 3 q-80 0 -95 -69q-2 -10 -3 -20z" glyph-name="egrave" horiz-adv-x="556" unicode="è"/>
<glyph d="M324 583h-110v10l66 146h160v-10zM284 -9q-120 1 -190 76q-69 77 -69 194q1 118 67 194q69 77 189 77q116 -1 183 -73t67 -182v-57h-349q1 -93 83 -103q10 -1 19 -1q71 1 91 52h149q-10 -75 -75 -126q-63 -51 -165 -51zM183 317h191q-4 72 -67 86q-13 3 -26 3 q-80 0 -95 -69q-2 -10 -3 -20z" glyph-name="eacute" horiz-adv-x="556" unicode="é"/>
<glyph d="M226 585h-118v10l94 142h163l94 -142v-10h-118l-55 54h-4zM284 -9q-120 1 -190 76q-69 77 -69 194q1 118 67 194q69 77 189 77q116 -1 183 -73t67 -182v-57h-349q1 -93 83 -103q10 -1 19 -1q71 1 91 52h149q-10 -75 -75 -126q-63 -51 -165 -51zM183 317h191q-4 72 -67 86 q-13 3 -26 3q-80 0 -95 -69q-2 -10 -3 -20z" glyph-name="ecircumflex" horiz-adv-x="556" unicode="ê"/>
<glyph d="M183 592q-64 0 -73 58q-1 8 -1 16q0 58 51 70q11 3 23 3q56 0 70 -48q3 -12 3 -25q0 -55 -46 -70q-13 -4 -27 -4zM312 666q0 60 53 71q10 2 20 2q34 -1 54 -20q20 -21 20 -53q-1 -34 -20 -54q-21 -20 -54 -20q-64 0 -72 59q-1 8 -1 15zM284 -9q-120 1 -190 76 q-69 77 -69 194q1 118 67 194q69 77 189 77q116 -1 183 -73t67 -182v-57h-349q1 -93 83 -103q10 -1 19 -1q71 1 91 52h149q-10 -75 -75 -126q-63 -51 -165 -51zM183 317h191q-4 72 -67 86q-13 3 -26 3q-80 0 -95 -69q-2 -10 -3 -20z" glyph-name="edieresis" horiz-adv-x="556" unicode="ë"/>
<glyph d="M209 583h-110l-116 146v10h160l66 -146v-10zM204 0h-154v523h154v-523z" glyph-name="igrave" horiz-adv-x="244" unicode="ì"/>
<glyph d="M170 583h-110v10l66 146h160v-10zM204 0h-154v523h154v-523z" glyph-name="iacute" horiz-adv-x="244" unicode="í"/>
<glyph d="M72 585h-118v10l94 142h163l94 -142v-10h-118l-55 54h-4zM204 0h-154v523h154v-523z" glyph-name="icircumflex" horiz-adv-x="244" unicode="î"/>
<glyph d="M29 592q-64 0 -73 58q-1 8 -1 16q0 58 51 70q11 3 23 3q56 0 70 -48q3 -12 3 -25q0 -55 -46 -70q-13 -4 -27 -4zM158 666q0 60 53 71q10 2 20 2q34 -1 54 -20q20 -21 20 -53q-1 -34 -20 -54q-21 -20 -54 -20q-64 0 -72 59q-1 8 -1 15zM204 0h-154v523h154v-523z" glyph-name="idieresis" horiz-adv-x="244" unicode="ï"/>
<glyph d="M547 263v-1v-1q-1 -121 -69 -196q-69 -74 -192 -74q-124 1 -193 74q-68 76 -68 196q1 121 69 196q69 75 192 75q21 0 26 -1q-25 30 -53 59l-127 -50l-30 76l87 35q-65 50 -121 79v10h147q39 -22 76 -49l115 46l30 -77l-72 -29q168 -155 182 -341q1 -13 1 -26v-1zM390 261 q-2 135 -104 136q-103 -2 -104 -136q2 -134 104 -135q103 2 104 135z" glyph-name="eth" horiz-adv-x="572" unicode="ð"/>
<glyph d="M385 583q-34 1 -68 18l-15 8q-23 13 -36 13q-26 -2 -27 -37h-92v15q0 100 71 123q17 6 37 6q34 -1 70 -19l16 -8q24 -13 36 -13q20 0 23 23q1 7 1 15h91v-15q-2 -128 -107 -129zM204 0h-154v523h138l12 -50h4q51 59 143 59q114 0 166 -81q28 -46 28 -107v-344h-154v296 q-2 95 -88 96q-63 0 -86 -54q-9 -22 -9 -48v-290z" glyph-name="ntilde" horiz-adv-x="581" unicode="ñ"/>
<glyph d="M368 583h-110l-116 146v10h160l66 -146v-10zM478 65q-69 -74 -192 -74q-124 1 -193 74q-68 76 -68 196q1 121 69 196q69 75 192 75t192 -75q69 -76 69 -196q-1 -121 -69 -196zM390 261q-2 135 -104 136q-103 -2 -104 -136q2 -134 104 -135q103 2 104 135z" glyph-name="ograve" horiz-adv-x="572" unicode="ò"/>
<glyph d="M329 583h-110v10l66 146h160v-10zM478 65q-69 -74 -192 -74q-124 1 -193 74q-68 76 -68 196q1 121 69 196q69 75 192 75t192 -75q69 -76 69 -196q-1 -121 -69 -196zM390 261q-2 135 -104 136q-103 -2 -104 -136q2 -134 104 -135q103 2 104 135z" glyph-name="oacute" horiz-adv-x="572" unicode="ó"/>
<glyph d="M231 585h-118v10l94 142h163l94 -142v-10h-118l-55 54h-4zM478 65q-69 -74 -192 -74q-124 1 -193 74q-68 76 -68 196q1 121 69 196q69 75 192 75t192 -75q69 -76 69 -196q-1 -121 -69 -196zM390 261q-2 135 -104 136q-103 -2 -104 -136q2 -134 104 -135q103 2 104 135z " glyph-name="ocircumflex" horiz-adv-x="572" unicode="ô"/>
<glyph d="M340 583q-34 1 -68 18l-15 8q-23 13 -36 13q-26 -2 -27 -37h-92v15q0 100 71 123q17 6 37 6q34 -1 70 -19l16 -8q24 -13 36 -13q20 0 23 23q1 7 1 15h91v-15q-2 -128 -107 -129zM478 65q-69 -74 -192 -74q-124 1 -193 74q-68 76 -68 196q1 121 69 196q69 75 192 75 t192 -75q69 -76 69 -196q-1 -121 -69 -196zM390 261q-2 135 -104 136q-103 -2 -104 -136q2 -134 104 -135q103 2 104 135z" glyph-name="otilde" horiz-adv-x="572" unicode="õ"/>
<glyph d="M188 592q-64 0 -73 58q-1 8 -1 16q0 58 51 70q11 3 23 3q56 0 70 -48q3 -12 3 -25q0 -55 -46 -70q-13 -4 -27 -4zM390 592q-64 0 -72 59q-1 8 -1 15q0 60 53 71q10 2 20 2q55 0 70 -46q4 -13 4 -27q0 -54 -46 -70q-13 -4 -28 -4zM478 65q-69 -74 -192 -74q-124 1 -193 74 q-68 76 -68 196q1 121 69 196q69 75 192 75t192 -75q69 -76 69 -196q-1 -121 -69 -196zM390 261q-2 135 -104 136q-103 -2 -104 -136q2 -134 104 -135q103 2 104 135z" glyph-name="odieresis" horiz-adv-x="572" unicode="ö"/>
<glyph d="M248 423q-65 0 -76 58q-2 11 -2 21q0 65 58 76q10 2 20 2q59 0 74 -50q4 -13 4 -28q0 -60 -51 -75q-13 -4 -27 -4zM491 250h-486v126h486v-126zM248 46q-65 0 -76 58q-2 11 -2 21q0 65 58 76q10 2 20 2q59 0 74 -50q4 -13 4 -28q0 -60 -51 -75q-13 -4 -27 -4z" glyph-name="divide" horiz-adv-x="496" unicode="÷"/>
<glyph d="M542 559l-64 -102q69 -74 69 -196q-1 -121 -69 -196q-69 -74 -192 -74q-50 0 -94 13l-39 -62h-123v10l68 109q-73 74 -73 200q1 121 69 196q69 75 192 75q55 0 98 -15l33 52h125v-10zM182 261q0 -33 6 -57l120 191q-18 2 -22 2q-103 -2 -104 -136zM286 126q103 2 104 135 q0 24 -4 50l-116 -184q4 -1 16 -1z" glyph-name="oslash" horiz-adv-x="572" unicode="ø"/>
<glyph d="M374 593v-10h-110l-116 146v10h160zM375 232v291h154v-314q-1 -92 -60 -155q-60 -63 -179 -63h-1q-120 0 -180 63q-59 64 -59 155v314h154v-291q2 -95 86 -96q84 2 85 96z" glyph-name="ugrave" horiz-adv-x="579" unicode="ù"/>
<glyph d="M451 739v-10l-116 -146h-110v10l66 146h160zM375 232v291h154v-314q-1 -92 -60 -155q-60 -63 -179 -63h-1q-120 0 -180 63q-59 64 -59 155v314h154v-291q2 -95 86 -96q84 2 85 96z" glyph-name="uacute" horiz-adv-x="579" unicode="ú"/>
<glyph d="M297 639h-4l-56 -54h-118v10l94 142h163l94 -142v-10h-118zM375 232v291h154v-314q-1 -92 -60 -155q-60 -63 -179 -63h-1q-120 0 -180 63q-59 64 -59 155v314h154v-291q2 -95 86 -96q84 2 85 96z" glyph-name="ucircumflex" horiz-adv-x="579" unicode="û"/>
<glyph d="M194 592q-64 0 -73 58q-1 8 -1 16q0 58 51 70q11 3 23 3q56 0 70 -48q3 -12 3 -25q0 -55 -46 -70q-13 -4 -27 -4zM396 592q-64 0 -72 59q-1 8 -1 15q0 60 53 71q10 2 20 2q55 0 70 -46q4 -13 4 -27q0 -54 -46 -70q-13 -4 -28 -4zM375 232v291h154v-314q-1 -92 -60 -155 q-60 -63 -179 -63h-1q-120 0 -180 63q-59 64 -59 155v314h154v-291q2 -95 86 -96q84 2 85 96z" glyph-name="udieresis" horiz-adv-x="579" unicode="ü"/>
<glyph d="M336 583h-110v10l66 146h160v-10zM294 -229h-167v10l75 219h-26l-166 513v10h158l106 -371h4l113 371h166v-10z" glyph-name="yacute" horiz-adv-x="567" unicode="ý"/>
<glyph d="M347 532q96 -1 154 -76q58 -77 58 -195q-1 -119 -58 -195q-58 -75 -154 -75q-89 1 -139 59h-4v-279h-154v969h154v-267h4q51 59 139 59zM403 261q0 112 -73 132q-14 4 -30 4q-82 0 -99 -91q-4 -22 -4 -45q2 -134 103 -135q102 2 103 135z" glyph-name="thorn" horiz-adv-x="600" unicode="þ"/>
</font>
</defs>
</svg>
